<svg xmlns="http://www.w3.org/2000/svg" xmlns:xlink="http://www.w3.org/1999/xlink" viewBox="0 0 84.82 71.28"><defs><style>.cls-1{fill:url(#linear-gradient);}.cls-2{fill:url(#linear-gradient-2);}.cls-3{fill:url(#linear-gradient-3);}.cls-4{fill:url(#linear-gradient-4);}.cls-5{fill:url(#linear-gradient-5);}.cls-6{fill:url(#linear-gradient-6);}.cls-7{fill:url(#linear-gradient-7);}.cls-8{fill:url(#linear-gradient-8);}.cls-9{fill:url(#linear-gradient-9);}.cls-10{opacity:0.54;fill:url(#linear-gradient-10);}.cls-11{fill:url(#linear-gradient-11);}.cls-12{fill:url(#linear-gradient-12);}.cls-13{fill:url(#linear-gradient-13);}.cls-14{fill:url(#linear-gradient-14);}.cls-15{fill:url(#linear-gradient-15);}.cls-16{fill:url(#linear-gradient-16);}.cls-17{fill:url(#linear-gradient-17);}.cls-18{fill:url(#linear-gradient-18);}.cls-19{fill:url(#linear-gradient-19);}.cls-20{fill:url(#linear-gradient-20);}.cls-21{fill:url(#linear-gradient-21);}</style><linearGradient id="linear-gradient" x1="-8.21" y1="53.98" x2="57.25" y2="-6.12" gradientUnits="userSpaceOnUse"><stop offset="0" stop-color="#630a00"/><stop offset="1" stop-color="#aa1700"/></linearGradient><linearGradient id="linear-gradient-2" x1="8.28" y1="71.93" x2="73.73" y2="11.83" xlink:href="#linear-gradient"/><linearGradient id="linear-gradient-3" x1="22.24" y1="87.14" x2="87.69" y2="27.04" xlink:href="#linear-gradient"/><linearGradient id="linear-gradient-4" x1="10.3" y1="74.14" x2="75.76" y2="14.04" xlink:href="#linear-gradient"/><linearGradient id="linear-gradient-5" x1="10.36" y1="74.2" x2="75.82" y2="14.1" xlink:href="#linear-gradient"/><linearGradient id="linear-gradient-6" x1="1.54" y1="64.6" x2="67" y2="4.5" xlink:href="#linear-gradient"/><linearGradient id="linear-gradient-7" x1="0.84" y1="63.83" x2="66.29" y2="3.73" xlink:href="#linear-gradient"/><linearGradient id="linear-gradient-8" x1="4" y1="67.27" x2="69.45" y2="7.17" xlink:href="#linear-gradient"/><linearGradient id="linear-gradient-9" x1="3.09" y1="66.28" x2="68.54" y2="6.18" xlink:href="#linear-gradient"/><linearGradient id="linear-gradient-10" x1="2.83" y1="66" x2="68.28" y2="5.9" xlink:href="#linear-gradient"/><linearGradient id="linear-gradient-11" x1="2.37" y1="65.5" x2="67.83" y2="5.4" xlink:href="#linear-gradient"/><linearGradient id="linear-gradient-12" x1="-0.39" y1="62.49" x2="65.06" y2="2.39" xlink:href="#linear-gradient"/><linearGradient id="linear-gradient-13" x1="-1.09" y1="61.73" x2="64.36" y2="1.63" xlink:href="#linear-gradient"/><linearGradient id="linear-gradient-14" x1="1.1" y1="64.11" x2="66.55" y2="4.01" xlink:href="#linear-gradient"/><linearGradient id="linear-gradient-15" x1="1.29" y1="64.33" x2="66.75" y2="4.23" xlink:href="#linear-gradient"/><linearGradient id="linear-gradient-16" x1="1.51" y1="64.56" x2="66.97" y2="4.46" xlink:href="#linear-gradient"/><linearGradient id="linear-gradient-17" x1="1.72" y1="64.79" x2="67.17" y2="4.69" xlink:href="#linear-gradient"/><linearGradient id="linear-gradient-18" x1="1.91" y1="65" x2="67.37" y2="4.9" xlink:href="#linear-gradient"/><linearGradient id="linear-gradient-19" x1="0.39" y1="63.35" x2="65.85" y2="3.25" xlink:href="#linear-gradient"/><linearGradient id="linear-gradient-20" x1="0.4" y1="63.36" x2="65.86" y2="3.26" xlink:href="#linear-gradient"/><linearGradient id="linear-gradient-21" x1="1.9" y1="64.99" x2="67.36" y2="4.89" xlink:href="#linear-gradient"/></defs><g id="Layer_2" data-name="Layer 2"><g id="Layer_1-2" data-name="Layer 1"><path class="cls-1" d="M13.23,34.48c0-.22-.05-.34-.06-.31S13.19,34.3,13.23,34.48Z"/><path class="cls-2" d="M74,32.55c2.23-8,6-12.16,6-12.16s-3.84,3.27-6.9,11.78c-1.82,5-2.38,3.61-2.51,3,.42-1.07.81-2.13,1.18-3.16h0c.33-.93.64-1.83.94-2.71,1.24-3.33,3.62-9,6.73-12.79A23.84,23.84,0,0,0,84.75,0s-1.09,13.29-10,15.53c-6.52,1.64-8.76,5.07-9.36,6.3a36.93,36.93,0,0,1-4.21.82c-.36-.79-1.06-3.57,4.56-6.27C75,11.94,75,.53,75,.53s-1.42,11.18-10.4,14C54,17.79,53.13,21.32,53.29,22.82c-1-.05-2-.1-3-.13-.94-.64-3.7-3.09,3.24-6.38C60.25,13.14,63,1.25,63,1.25s-3.47,12-11,13.65c-6.91,1.51-7.95,5.84-8.06,7.76-1.2,0-2.39.12-3.58.23-.74-.29-1.81-1.45,2.25-5.95,4.9-5.44,6-11.19,5.69-11.29,0,0-2,9.12-7.87,11.15-4.26,1.49-5.6,4.54-4.8,6.83-1.06.24-2.1.52-3.12.85l.11-.06s-3.53-.72,1.28-5.48c3.32-3.29,5.35-10.62,5.35-10.62s-2.68,8.37-7.15,11.21A6.5,6.5,0,0,0,29,25.92a22.48,22.48,0,0,0-2.9,1.71c-.57.05-1.9-.12.52-3.72,1.92-2.84,1.67-8.63,1.67-8.63s0,6.19-3.28,9.2c-2.59,2.4-2.24,4.65-1.9,5.62a23.81,23.81,0,0,0-1.94,2.15c-.16.19-.3.38-.45.57s-1.77.4.35-2.52.81-8.17.81-8.17.58,5.09-2.18,9c-1.54,2.18-1.36,3.67-1,4.5-.64,1-1.23,1.9-1.77,2.83-.42.38-1.34.9-.71-2.24,1.26-6.32-.3-9-.3-9s.8,3.55-.71,9.43c-.81,3.16-.66,4.9-.37,5.84-.33.72-.63,1.41-.91,2.09-.48.35-1.8,1-1-3.53a17.65,17.65,0,0,0,.21-6.59,20.33,20.33,0,0,1-.81,7.79c-1.25,4-.15,5.28.32,5.61-.48,1.39-.87,2.68-1.22,3.84-.77.1-.75-2.5-.88-5.57a18,18,0,0,0-.74-4.22,22.66,22.66,0,0,1,.45,6.82c-.52,3.31.18,4.62.53,5-.13.43-.25.84-.36,1.22-.45,1.21-1.19,2.7-2.23,3.18a.32.32,0,0,1,0-.17.64.64,0,0,1,.05-.17,1.63,1.63,0,0,1,.11-.17,3,3,0,0,1,.7-.67,2.29,2.29,0,0,0,.23-.21,1.38,1.38,0,0,0,.17-.25l0-.08a1.17,1.17,0,0,0,.08-.21,3,3,0,0,0,.11-.64,3.43,3.43,0,0,0-.06-.84,1.45,1.45,0,0,0-.25-.67c-.08,0-.08.13-.09.68a4.82,4.82,0,0,1-.14,1,2.28,2.28,0,0,1-.13.32A.33.33,0,0,1,9,56.2a1,1,0,0,1-.26.33,3.57,3.57,0,0,0-.84.81,1.64,1.64,0,0,0-.16.26,1.09,1.09,0,0,0-.1.32,1,1,0,0,0,0,.45c-.62.12-1.13.2-1.57.3a2.93,2.93,0,0,1,0-.78,1.27,1.27,0,0,1,.41-.83.88.88,0,0,1,.15-.12l.09,0,.09-.06.26-.15.24-.18a1.55,1.55,0,0,0,.25-.26,1.87,1.87,0,0,0,.2-.29,1.83,1.83,0,0,0,.11-.29,1.67,1.67,0,0,0,0-.27.9.9,0,0,0-.25-.71c-.05,0-.05,0-.05.13a1.78,1.78,0,0,1,0,.52,1.25,1.25,0,0,1-.2.4.81.81,0,0,1-.16.16.27.27,0,0,1-.08.07L7.08,56l-.17.1a.56.56,0,0,1-.13.07l-.13.06-.12.06-.15.08a1.79,1.79,0,0,0-.28.2,2,2,0,0,0-.24.26,1.83,1.83,0,0,0-.18.3,2.54,2.54,0,0,0-.19.65,3.22,3.22,0,0,0,0,1,2.41,2.41,0,0,0-1,.63C3.93,60.11,3,61,3,61S.59,60.41.22,62.32C0,63.61,5,64.28,5,64.28a6.62,6.62,0,0,0-1.77,2.21c-.34.69,1.84,1.62,3.17.52a6.19,6.19,0,0,1,2.24-.89l.05-.06c0,.29.17.39.33-.08a2,2,0,0,1,1.16-1.21s.18-.48,0,.45a5.67,5.67,0,0,0,.19,2.29s.07-1.37.16-1.92.88-2.33.86-1.52A1.34,1.34,0,0,0,12,65.24s.23-1.74.37-2.29,1.67-2.6,1.71-2.17,1.16,1.08,1.16,1.08,0,1.59.21,0a5.59,5.59,0,0,0-1.18-3.36,6.17,6.17,0,0,0,1-2.84,25.76,25.76,0,0,1,1.48-5.39c.42-1,.85-2.07,1.32-3.25,7.49-19.2,24.63-19.18,35.69-17.35,9,1.5,11.67.42,11.67.42s-.41,11.44-5,19.76A30.63,30.63,0,0,1,43.31,64.56c-4.7,1.64-12.65,1.16-18.89.38-1.36-.37-3.32-1-3.79-2-.73-1.47-.76.27.37,1.19a3.29,3.29,0,0,0,.92.46l-1.32-.19A10.82,10.82,0,0,0,18.25,64c-1.62-.1-4.15-1.74-3.08-.06.51.8,2,1,3.48,1-7,.79-8.28,6.31-8.28,6.31a25.42,25.42,0,0,1,6.48-4.65,21.11,21.11,0,0,1,5.29-1.57c.69.13,1.41.25,2.17.37a8.13,8.13,0,0,0-6.57,5.48s4.13-3.82,6.4-4.7a8.83,8.83,0,0,1,2.07-.51,66.27,66.27,0,0,0,8,.56,4.7,4.7,0,0,0,4,1.27,11,11,0,0,1,4.38.73s-2.15-1.45-4-1.19-1.42-.63-1.25-.89c1-.05,2-.14,3-.26a5.52,5.52,0,0,0,5.46.72,12.75,12.75,0,0,1,5.5-.46,11.22,11.22,0,0,0-4.93-.27c-2.72.73-.93-1-.93-1h0A28.93,28.93,0,0,0,48.45,64c.87.4,5.17,1.95,10.06-2.94,5.34-5.34,9.22-5.52,9.22-5.52s-4,0-9,4.36-5.43,1.66-5.43,1.66h0c.37-.24.73-.48,1.08-.74a28.21,28.21,0,0,0,5-4.9A19.29,19.29,0,0,0,69,46.72a25.59,25.59,0,0,1,6.21-8.4,38.55,38.55,0,0,0-5.85,6.28c-4.62,6-4,2.23-4,2.23h0c.5-.94,1-1.89,1.45-2.85A24,24,0,0,0,74,32.55ZM20.7,64.87l.28,0,.25,0Z"/><path class="cls-3" d="M75.17,38.32a12.45,12.45,0,0,1,2-1.43A11.38,11.38,0,0,0,75.17,38.32Z"/><path class="cls-4" d="M53.77,48H50.22V46.09h3.41a1.49,1.49,0,0,0,1.45-1.8C53.47,37,46.84,31.48,39.65,31.51a16.28,16.28,0,0,0-15.43,12.9l-.06.26a1.27,1.27,0,0,0,1.23,1.53l3.78,0v1.85l-3.28,0a1.48,1.48,0,0,0-1.44,1.79A16.62,16.62,0,0,0,29.83,59a15.18,15.18,0,0,0,10,3.78,16.23,16.23,0,0,0,15.45-13A1.48,1.48,0,0,0,53.77,48Zm-2.13-4.85H44.1v-.29h3.68a1,1,0,0,0,.72-1.57l-.72-.86a10.1,10.1,0,0,0-1-1L48.21,38A13.6,13.6,0,0,1,51.64,43.12ZM31.09,38l1.45,1.44a10.15,10.15,0,0,0-.95,1l-.29.35a1.27,1.27,0,0,0,1,2.07h2.82a.21.21,0,0,1,.21.21.21.21,0,0,1-.21.22l-7.48-.07A13.57,13.57,0,0,1,31.09,38Zm-3.22,13L35.33,51v.41l-3.42,0a1.06,1.06,0,0,0-.81,1.75l.56.68a11.19,11.19,0,0,0,.82.86L31.13,56.1A13.67,13.67,0,0,1,27.87,51.06Zm11.9,8.7a11.93,11.93,0,0,1-6.29-1.82L35,56.44a11.76,11.76,0,0,0,1.46.6l.3.1a1.25,1.25,0,0,0,1.64-1.21l-.08-6.47A1.46,1.46,0,0,0,36.81,48l-4.67,0v-1.8l4.2,0a2,2,0,0,0,2-2l-.08-6.41A1,1,0,0,0,36.92,37l-.66.22a13.33,13.33,0,0,0-1.23.52l-1.54-1.53a12.25,12.25,0,0,1,6.17-1.75,12,12,0,0,1,6.15,1.72L44.32,37.7a11.36,11.36,0,0,0-1.3-.52l-.6-.19a1,1,0,0,0-1.35,1l.08,6.32A1.81,1.81,0,0,0,43,46.09h4.28V48H43.37a2.21,2.21,0,0,0-2.19,2.21l0,6a1.08,1.08,0,0,0,1.44,1l.53-.18a10.22,10.22,0,0,0,1.4-.61l1.55,1.53A12.38,12.38,0,0,1,39.77,59.76Zm8.73-3.67L47,54.64a11,11,0,0,0,.81-.86l.76-.93a.92.92,0,0,0-.71-1.5H44.15V51l7.68,0A13.37,13.37,0,0,1,48.5,56.09Z"/><circle class="cls-5" cx="39.83" cy="47.14" r="1.77"/><path class="cls-6" d="M3.09,62.19h0a.43.43,0,0,1,.33.08h0v0a.36.36,0,0,0,0,.11,1,1,0,0,0,0,.34.66.66,0,0,0,.09.29l0,.07,0,0,.05.06s0,0,.06.06l.07.07c.18.11.11.18,0,.19l-.19,0a.9.9,0,0,1-.19-.1.44.44,0,0,1-.14-.17A1,1,0,0,1,3,62.81a2,2,0,0,1,0-.43C3.07,62.27,3.09,62.19,3.09,62.19Z"/><path class="cls-7" d="M1.07,62.62h0a.39.39,0,0,1,.33.08h0v0a.27.27,0,0,0,0,.11,1,1,0,0,0,0,.34.71.71,0,0,0,.09.29l.05.06,0,0,.05.06s0,0,.06.06l.07.07c.18.11.11.18-.05.19l-.19,0-.19-.1a.85.85,0,0,1-.14-.17A1,1,0,0,1,1,63.24a1.9,1.9,0,0,1,0-.42C1.05,62.7,1.07,62.63,1.07,62.62Z"/><path class="cls-8" d="M5.43,66.57h0a.65.65,0,0,1-.32.13h0l0-.13c0-.07,0-.17-.06-.27a1.45,1.45,0,0,1,0-.42l0-.07a.45.45,0,0,1,.1-.14c.12-.13.17,0,.19,0s0,.19,0,.19a1.27,1.27,0,0,0,0,.33,1.16,1.16,0,0,0,.06.22Z"/><path class="cls-9" d="M3.61,66.42h0a.76.76,0,0,1-.32.13h0l0-.13a1.5,1.5,0,0,1-.07-.27,2,2,0,0,1,0-.42l0-.08a.57.57,0,0,1,.1-.13c.12-.13.17,0,.19,0a1.29,1.29,0,0,1,0,.19,2.15,2.15,0,0,0,0,.33c0,.08,0,.16.06.22A1,1,0,0,1,3.61,66.42Z"/><path class="cls-10" d="M12.82,59.34a3.33,3.33,0,0,0,.53-.67l.11-.18.07-.13.08-.15a1,1,0,0,0,.1-.17c.06-.12.13-.24.18-.37a4.46,4.46,0,0,0,.33-1.77v-.79s0,0,0,0l0,0-.27.38-.12.19-.07.1-.49.8a8.49,8.49,0,0,1-.5.77l-.13.17-.06.08,0,0h0l0-.07a3,3,0,0,1,.13-.36,6.17,6.17,0,0,1,.31-.63,6,6,0,0,0,.43-1c.08-.24.12-.38.12-.38l.06-.28,0-.07v0a.15.15,0,0,1,0-.06l0-.35,0-.19v-.05s0,0,0,0l-.09.07-.19.15-.09.08-.09.07a5.91,5.91,0,0,0-.85,1.13l-.23.36-.13.19,0,.08h0s0,0,0,0,.06-.3.1-.45a2.5,2.5,0,0,1,.19-.48l.24-.49.12-.25,0-.07h0l0,0-.11.08-.44.32-.2.15-.11.1a9.11,9.11,0,0,0-.94.92l-.22.22-.11.11-.05.05-.09.09-.27.24a4.25,4.25,0,0,0-.59.63,2.54,2.54,0,0,0,.74-.45l.28-.26.09-.08.05,0,.11-.11.23-.23c.29-.31.59-.63.91-.91l.11-.08,0,0h0a2.47,2.47,0,0,0-.19.5c0,.16-.08.32-.11.46l-.23,1v.06l.08-.1.14-.19.27-.38.13-.19.08-.12.12-.19.23-.37a6,6,0,0,1,.82-1.08l0,0h0v0l0,.14c0,.18-.07.27-.07.27a3.47,3.47,0,0,1-.11.37,6,6,0,0,1-.42.94c-.1.19-.21.41-.32.65s-.09.25-.13.38l0,.12c0,.07,0,.13,0,.19l-.06.37,0,.1v0l0,0,.15-.14.28-.27.07-.08,0-.05.07-.09.14-.18q.27-.37.51-.78l.49-.8.06-.09h0v0a4.35,4.35,0,0,1-.31,1.69,3.78,3.78,0,0,1-.17.35l-.1.17-.08.14-.07.13-.11.18A2.9,2.9,0,0,0,12.82,59.34Z"/><path class="cls-11" d="M.69,63.06a1.22,1.22,0,0,1-.2-.28.36.36,0,0,1,0-.23A.92.92,0,0,1,1,62.37l.33,0h.84l.68,0c.24,0,.48,0,.71.06a9.71,9.71,0,0,1,1.42.39,5.42,5.42,0,0,0,1.45.33h.35l.32,0,.55,0c.35,0,.63,0,.83,0l.3,0,.2,0,.35.06h0l0,.09a7,7,0,0,1-.72,1,8.41,8.41,0,0,1-.73.74,3.93,3.93,0,0,1-.44.34,3.56,3.56,0,0,0-.5.39c-.16.14-.31.3-.45.45s-.32.45-.44.55a.88.88,0,0,1-.45.17L5.4,67H5.22a3.42,3.42,0,0,1-.67,0c-.27,0-.49-.11-.69-.16s-.6-.07-.63-.23c-.28.31.08.52.38.58a3.64,3.64,0,0,0,.87.19,4.23,4.23,0,0,0,.74.05h.36a1.31,1.31,0,0,0,.63-.25,4.41,4.41,0,0,0,.5-.6c.14-.15.27-.3.41-.43a5.74,5.74,0,0,1,.47-.35,4.37,4.37,0,0,0,.48-.37,10.85,10.85,0,0,0,.76-.78,7,7,0,0,0,.76-1.08l.05-.09.09-.16L9.88,63a4.22,4.22,0,0,0-.52-.12L9,62.8l-.21,0-.32,0c-.2,0-.5,0-.86,0a4.09,4.09,0,0,0-.59,0l-.3,0H6.41a6.06,6.06,0,0,1-1.35-.31A9,9,0,0,0,3.58,62c-.26,0-.51-.05-.74-.07l-.7,0H1.51l-.25,0a2.37,2.37,0,0,0-.37,0,1.33,1.33,0,0,0-.43.13,1.1,1.1,0,0,0-.18.14.44.44,0,0,0-.11.25.5.5,0,0,0,.2.36A.92.92,0,0,0,.69,63.06Z"/><path class="cls-12" d="M2.78,60.94c-.29-.11-.47-.18-.8-.28a2.43,2.43,0,0,1-.31-.14.58.58,0,0,1-.33-.37.51.51,0,0,1,.06-.28.63.63,0,0,1,.18-.24.68.68,0,0,1,.5-.06l.24,0,.21,0a3.26,3.26,0,0,0,.54.06,1.81,1.81,0,0,0,.68-.1,1.77,1.77,0,0,0,.58-.31,2.76,2.76,0,0,0,.4-.36,1.89,1.89,0,0,0,.44-.75,6.62,6.62,0,0,0-.6.59,3.17,3.17,0,0,1-.38.34,1.76,1.76,0,0,1-.51.27,1.62,1.62,0,0,1-.61.09,2.28,2.28,0,0,1-.5-.06l-.2,0-.26,0a1.28,1.28,0,0,0-.29,0,.74.74,0,0,0-.37.12.81.81,0,0,0-.26.33.74.74,0,0,0-.08.42.69.69,0,0,0,.19.35,1.31,1.31,0,0,0,.26.19,1.66,1.66,0,0,0,.35.14A1.89,1.89,0,0,0,2.78,60.94Z"/><path class="cls-13" d="M1.14,61.1a8.07,8.07,0,0,1-.6-.58,1.66,1.66,0,0,1-.19-.27.9.9,0,0,1-.12-.41,1.09,1.09,0,0,1,.13-.49.61.61,0,0,1,.27-.28l.12,0H.94l.39,0c.31.06.69.17,1,.2a1.17,1.17,0,0,0,.57-.06.6.6,0,0,0,.35-.37,1,1,0,0,0,.06-.42,2,2,0,0,1-.2.34.73.73,0,0,1-.3.24,1.13,1.13,0,0,1-.46,0c-.26,0-.64-.14-1-.2a2.43,2.43,0,0,0-.44,0H.69l-.16.06a.85.85,0,0,0-.37.38,1.42,1.42,0,0,0-.16.61,1.15,1.15,0,0,0,.14.51,1.53,1.53,0,0,0,.23.32A1.35,1.35,0,0,0,1.14,61.1Z"/><path class="cls-14" d="M5,60.24a.35.35,0,0,0,.27.1A1.29,1.29,0,0,0,5.94,60a1.1,1.1,0,0,0,.2-.26,1.23,1.23,0,0,0,.15-.39.32.32,0,0,0-.1-.27.54.54,0,0,0-.13.23,1.19,1.19,0,0,1-.12.32.91.91,0,0,1-.16.2,1.16,1.16,0,0,1-.21.16,1.09,1.09,0,0,1-.32.11C5.16,60.12,5.12,60.17,5,60.24Z"/><path class="cls-15" d="M5.76,60a.27.27,0,0,0,.25.06,1.85,1.85,0,0,0,.32-.16,2.18,2.18,0,0,0,.22-.17,2.06,2.06,0,0,0,.19-.2,1.62,1.62,0,0,0,.18-.31.25.25,0,0,0,0-.25c-.09.05-.15.08-.18.16a1.52,1.52,0,0,1-.16.26.88.88,0,0,1-.16.17,1.52,1.52,0,0,1-.18.15l-.27.13A.39.39,0,0,0,5.76,60Z"/><path class="cls-16" d="M6.48,59.72a.26.26,0,0,0,.23.1.92.92,0,0,0,.34-.11,1.32,1.32,0,0,0,.23-.16,1.25,1.25,0,0,0,.18-.21A.89.89,0,0,0,7.61,59a.21.21,0,0,0-.07-.23c-.08.07-.13.1-.15.17a.9.9,0,0,1-.12.26,1.15,1.15,0,0,1-.33.29.66.66,0,0,1-.26.09A.46.46,0,0,0,6.48,59.72Z"/><path class="cls-17" d="M6.82,59.78c0,.08.06.13.13.14a.5.5,0,0,0,.24,0l.18,0a1,1,0,0,0,.17-.1.67.67,0,0,0,.17-.18s0-.11,0-.18-.14,0-.17.05a.44.44,0,0,1-.12.12l-.12.08-.13,0H7S6.89,59.72,6.82,59.78Z"/><path class="cls-18" d="M7.12,59.81c0,.08,0,.13,0,.14l.2.11.21.1s.07,0,.13-.06,0-.13,0-.15l-.2-.1-.21-.1S7.18,59.76,7.12,59.81Z"/><path class="cls-19" d="M3.71,60.56c.08,0,.12,0,.14-.07l0-.15,0-.12,0-.11L4.05,60s0-.08,0-.15-.13,0-.15,0a.94.94,0,0,0-.08.15l0,.13a.55.55,0,0,0-.05.12l0,.17S3.64,60.51,3.71,60.56Z"/><path class="cls-20" d="M3.82,60.4c.09,0,.15,0,.18-.07L4.24,60l.26-.34a.23.23,0,0,0,0-.2c-.09,0-.15,0-.19.06s-.26.35-.26.35l-.24.36C3.77,60.26,3.79,60.32,3.82,60.4Z"/><path class="cls-21" d="M6.56,61.42h0a.73.73,0,0,1-.51-.26.71.71,0,0,1-.18-.55.73.73,0,0,1,.26-.52.77.77,0,0,1,.56-.18h0a.78.78,0,0,1,.52.27.73.73,0,0,1,.17.55.75.75,0,0,1-.26.52A.8.8,0,0,1,6.56,61.42Zm.11-1.32a.52.52,0,0,0-.41.13.62.62,0,0,0-.2.38A.56.56,0,0,0,6.2,61a.51.51,0,0,0,.38.2h0A.61.61,0,0,0,7,61.09a.64.64,0,0,0,.2-.39h0a.57.57,0,0,0-.14-.41.54.54,0,0,0-.38-.19Z"/><circle class="cls-21" cx="6.63" cy="60.66" r="0.28"/></g></g></svg>