<svg xmlns="http://www.w3.org/2000/svg" xmlns:xlink="http://www.w3.org/1999/xlink" viewBox="0 0 1921.43 149.09"><defs><style>.cls-1{fill:url(#linear-gradient);}.cls-2{fill:#ff1800;}</style><linearGradient id="linear-gradient" x1="978.55" y1="1.67" x2="978.55" y2="126.2" gradientTransform="matrix(-1, 0, 0, 1, 1939.26, 0)" gradientUnits="userSpaceOnUse"><stop offset="0" stop-color="#fd273b"/><stop offset="1" stop-color="#f90"/></linearGradient></defs><g id="Layer_2" data-name="Layer 2"><g id="Layer_1-2" data-name="Layer 1"><path class="cls-1" d="M960.71,146.68c149.94,0,115.81-17,188.43-7.45,77.31,10.12,171.86,10.41,292.64-14,48.07-9.71,229.94,1.44,289.54,12.56,103.68,19.33,190-10.85,190-10.85V.06L960.71,0,.1,0V126.89s86.33,30.18,190,10.85c59.61-11.12,241.48-22.27,289.55-12.56,120.78,24.4,215.33,24.11,292.64,14C844.91,129.67,810.78,146.68,960.71,146.68Z"/><path class="cls-2" d="M.2,126.72a394.65,394.65,0,0,0,59.05,11.61q14.94,1.84,30,2.73c10,.59,20,.81,30,.75s20-.52,30-1.36,19.9-1.95,29.77-3.54l14.85-2.59c5-.83,10-1.53,15-2.19,10-1.33,20.06-2.34,30.09-3.31,20.09-1.83,40.2-3.22,60.31-4.38q15.09-.85,30.19-1.52t30.19-1.26c20.13-.77,40.26-1.33,60.42-1.4q7.56,0,15.12.1c5,.07,10.09.18,15.13.38a221,221,0,0,1,30.26,2.91c19.75,3.71,39.64,6.56,59.57,9,10,1.16,20,2.21,30,3s20,1.59,30,2.2q30.06,1.71,60.19,1.75c10,0,20.08-.11,30.11-.29s20.07-.59,30.1-1c20.07-.84,40.1-2.27,60.11-4q7.5-.67,15-1.42l7.49-.79,3.74-.41,1.87-.21.94-.1.47,0a2.57,2.57,0,0,1,.3,0H811a3.25,3.25,0,0,1,.39,0l.31,0,.56.07,1,.16,1.91.37,3.73.79,7.38,1.59c4.9,1,9.82,2,14.74,3,9.85,1.83,19.73,3.51,29.67,4.7q7.46.92,14.94,1.47c5,.37,10,.58,15,.76q15.06.51,30.16.67c10.06.11,20.13.19,30.2.44v.6l-30.19.83c-10.07.24-20.14.51-30.24.41a355.67,355.67,0,0,1-60.39-5.29c-5-.84-10-1.76-14.91-2.72l-7.42-1.45-3.67-.71-1.8-.3c-.3-.06-.58-.09-.85-.13l-.37,0h-.25l-7.16.92-7.51.92q-7.51.9-15,1.7c-10,1.1-20.09,2-30.15,2.73s-20.14,1.41-30.22,1.92c-20.16.93-40.36,1.4-60.55,1.16s-40.37-1-60.51-2.36-40.24-3.41-60.24-6.15-39.89-6.29-59.62-10.49a217.76,217.76,0,0,0-29.74-3.56c-10-.64-20.07-.93-30.13-1-20.11-.19-40.23.37-60.33,1.3q-15.08.74-30.13,1.78t-30.09,2.39q-30.06,2.6-60,6c-10,1.1-20,2.34-29.91,3.64-5,.67-9.92,1.38-14.84,2.21s-9.93,1.72-14.91,2.52a379.37,379.37,0,0,1-60.58,4.3c-10.12-.06-20.23-.55-30.31-1.38s-20.13-2-30.11-3.59-19.9-3.53-29.72-5.84A279.85,279.85,0,0,1,0,127.29Z"/><path class="cls-2" d="M390.5,108.09c3.14-.35,6.3-.54,9.46-.69s6.33-.24,9.5-.24c6.33,0,12.68.18,19,.71s12.66,1.26,18.95,2.37a163.91,163.91,0,0,1,18.67,4.46c24.05,7.29,48.54,12.68,73.35,14.51a225.63,225.63,0,0,0,37.13-.1A275.75,275.75,0,0,0,613.35,123c12.25-2.66,24.49-5.93,37.08-8.07,1.57-.28,3.15-.52,4.72-.77s3.17-.43,4.76-.58q4.77-.54,9.57-.7a95.48,95.48,0,0,1,9.57.24,75.83,75.83,0,0,1,9.42,1.39c-12.67-.7-25,1.56-37.12,4.7S627.26,126.3,615,129.66A231.94,231.94,0,0,1,577.31,137a207.29,207.29,0,0,1-38.51.06A257.91,257.91,0,0,1,501,130.73c-3.1-.72-6.19-1.53-9.26-2.41s-6.12-1.77-9.16-2.72q-9.12-2.85-18-6.22a158.53,158.53,0,0,0-17.92-5.18c-6.08-1.44-12.25-2.57-18.46-3.45A268.66,268.66,0,0,0,390.5,108.09Z"/><path class="cls-2" d="M344.24,108.33c-11.49.47-22.91,1.11-34.23,2.46a333.61,333.61,0,0,0-33.64,5.55c-11.08,2.48-22.07,5.32-33,8.64s-21.84,6.72-32.88,10q-8.28,2.43-16.68,4.64l-8.43,2.05c-2.83.61-5.65,1.3-8.49,1.85a263.3,263.3,0,0,1-34.46,4.71,265.84,265.84,0,0,1-34.68.21,302.34,302.34,0,0,1-34.28-4.17c11.5.3,22.93.57,34.34.24l8.54-.3,8.52-.54c5.67-.46,11.33-.92,17-1.65,11.25-1.44,22.41-3.39,33.46-5.92s22-5.56,33-8.79,21.93-6.59,33.07-9.58a343.55,343.55,0,0,1,33.87-7.48l4.28-.7,4.31-.58,4.3-.56,4.33-.43c1.44-.13,2.87-.28,4.32-.39l4.33-.28,4.32-.27,4.33-.13A252.94,252.94,0,0,1,344.24,108.33Z"/><path class="cls-2" d="M1921.43,127.35a279.85,279.85,0,0,1-29.09,8.36c-9.82,2.31-19.73,4.31-29.72,5.83s-20,2.78-30.11,3.6-20.19,1.32-30.31,1.38a379.37,379.37,0,0,1-60.58-4.3c-5-.8-10-1.68-14.91-2.53s-9.88-1.53-14.85-2.2c-9.94-1.3-19.91-2.54-29.9-3.64q-30-3.43-60-6-15-1.29-30.09-2.39t-30.13-1.78c-20.1-.93-40.22-1.49-60.34-1.3-10,.09-20.1.38-30.12,1a217.75,217.75,0,0,0-29.74,3.55c-19.73,4.2-39.61,7.79-59.62,10.49s-40.1,4.78-60.24,6.15-40.33,2.16-60.52,2.37-40.38-.23-60.54-1.16q-15.12-.76-30.22-1.92c-10.06-.76-20.12-1.64-30.15-2.73q-7.53-.81-15-1.7l-7.51-.92-7.17-.92h-.24a2.94,2.94,0,0,0-.37,0l-.85.12-1.8.31-3.68.7-7.41,1.46c-5,1-9.92,1.88-14.91,2.72a355.7,355.7,0,0,1-60.4,5.29c-10.09.1-20.16-.17-30.23-.41L960.42,146v-.6c10.07-.25,20.14-.32,30.2-.44s20.12-.33,30.16-.66c5-.19,10-.4,15-.76s10-.86,15-1.47c9.94-1.2,19.82-2.87,29.67-4.71,4.92-.92,9.83-1.93,14.74-3l7.38-1.59,3.72-.78,1.92-.37,1-.16c.16,0,.34-.06.56-.08l.31,0c.09,0,.19,0,.39,0l.51,0a2.57,2.57,0,0,1,.3,0l.47,0,.94.1,1.87.21,3.74.41,7.49.78q7.5.77,15,1.42c20,1.75,40,3.18,60.1,4,10,.42,20.07.8,30.1,1s20.08.3,30.12.29q30.11,0,60.19-1.75c10-.61,20-1.31,30-2.2s20-1.88,30-3c19.93-2.43,39.82-5.28,59.57-9a219.44,219.44,0,0,1,30.26-2.91c5-.21,10.09-.32,15.13-.38s10.08-.12,15.12-.1c20.15.07,40.29.63,60.42,1.4q15.11.56,30.19,1.26t30.19,1.52c20.11,1.16,40.22,2.55,60.3,4.38,10,1,20.08,2,30.1,3.31,5,.66,10,1.36,15,2.19l14.85,2.59c9.86,1.58,19.8,2.73,29.77,3.54s20,1.3,30,1.36,20-.16,30-.75,20-1.51,29.94-2.74a394.76,394.76,0,0,0,59.06-11.6Z"/><path class="cls-2" d="M1530.93,108.14a268.45,268.45,0,0,0-37.65,2.67c-6.21.88-12.38,2-18.46,3.44a156.52,156.52,0,0,0-17.92,5.19q-8.88,3.36-18,6.21-4.56,1.44-9.16,2.73t-9.26,2.41a257.91,257.91,0,0,1-37.83,6.31,207.29,207.29,0,0,1-38.51-.06,231.94,231.94,0,0,1-37.68-7.32c-12.27-3.36-24.26-7.26-36.36-10.43s-24.45-5.41-37.13-4.7a76.27,76.27,0,0,1,9.43-1.39A92.52,92.52,0,0,1,1252,113c3.2.11,6.39.33,9.57.69,1.59.16,3.17.38,4.76.59s3.15.48,4.72.76c12.58,2.14,24.83,5.42,37.08,8.08a275.75,275.75,0,0,0,36.78,6.09,226.74,226.74,0,0,0,37.13.1c24.81-1.83,49.3-7.22,73.35-14.51A159.77,159.77,0,0,1,1474,110.3c6.29-1.11,12.62-1.86,19-2.37s12.68-.72,19-.71q4.76,0,9.5.24C1524.63,107.61,1527.78,107.8,1530.93,108.14Z"/><path class="cls-2" d="M1201.77,114.52a126,126,0,0,0-30.06,3.81c-9.83,2.38-19.54,5.3-29.32,8.13s-19.65,5.4-29.6,7.73-20,4.27-30.06,6c-40.34,6.77-81.27,8.79-122,8.93-20.39-.06-40.79-.61-61.16-2s-40.72-3.51-60.87-7c-10.07-1.7-20.11-3.63-30.06-6s-19.8-5-29.59-7.75-19.49-5.76-29.32-8.15a126,126,0,0,0-30.05-3.82,109.72,109.72,0,0,1,15.28-.19,141.41,141.41,0,0,1,15.22,1.84c10.08,1.76,20,4.25,29.86,6.52,19.74,4.71,39.58,8.62,59.61,11.35,2.5.37,5,.67,7.51,1s5,.63,7.53.88l7.53.84,7.55.73c10.07.9,20.15,1.67,30.26,2.15q30.3,1.66,60.7,1.53,30.39.12,60.7-1.52c10.11-.48,20.19-1.24,30.26-2.14l7.55-.74,7.53-.82c2.52-.26,5-.57,7.53-.88s5-.61,7.52-1c20-2.72,39.87-6.63,59.61-11.34,9.9-2.26,19.78-4.75,29.86-6.5a138.93,138.93,0,0,1,15.22-1.84A109.72,109.72,0,0,1,1201.77,114.52Z"/><path class="cls-2" d="M1577.19,108.39a252.86,252.86,0,0,1,34.5-1.44l4.34.13,4.32.27,4.33.28c1.44.11,2.88.26,4.32.39l4.33.42,4.3.57,4.31.58,4.28.7a343.55,343.55,0,0,1,33.87,7.48c11.14,3,22.11,6.38,33.07,9.58s21.9,6.29,32.95,8.79,22.21,4.48,33.46,5.92c5.63.73,11.29,1.19,17,1.65l8.52.54,8.55.3c11.4.33,22.84.06,34.34-.24a300.06,300.06,0,0,1-34.28,4.16,264.09,264.09,0,0,1-34.68-.2,261.64,261.64,0,0,1-34.46-4.72c-2.85-.54-5.66-1.23-8.49-1.84l-8.44-2.06c-5.58-1.47-11.15-3-16.67-4.63-11-3.26-22-6.72-32.88-10s-21.9-6.15-33-8.63a330.84,330.84,0,0,0-33.64-5.56C1600.1,109.5,1588.68,108.85,1577.19,108.39Z"/></g></g></svg>