<svg xmlns="http://www.w3.org/2000/svg" xmlns:xlink="http://www.w3.org/1999/xlink" viewBox="0 0 131.27 61.69"><defs><style>.cls-1{fill:url(#linear-gradient);}.cls-2{fill:url(#linear-gradient-2);}.cls-3{fill:url(#linear-gradient-3);}.cls-4{fill:url(#linear-gradient-4);}.cls-5{fill:url(#linear-gradient-5);}.cls-6{fill:url(#linear-gradient-6);}.cls-7{font-size:12px;fill:#fff;font-family:LucidaBright, Lucida Bright;letter-spacing:0.1em;}.cls-8{fill:none;stroke-linecap:round;stroke-miterlimit:10;stroke-width:2px;stroke:url(#linear-gradient-7);}</style><linearGradient id="linear-gradient" x1="17.65" y1="32.06" x2="17.65" y2="12.66" gradientUnits="userSpaceOnUse"><stop offset="0" stop-color="#fcbf16"/><stop offset="0.41" stop-color="#e76325"/><stop offset="0.51" stop-color="#e96d22"/><stop offset="0.67" stop-color="#ee871b"/><stop offset="0.88" stop-color="#f6b10f"/><stop offset="1" stop-color="#fbcd07"/></linearGradient><linearGradient id="linear-gradient-2" x1="43.56" y1="32.06" x2="43.56" y2="12.66" xlink:href="#linear-gradient"/><linearGradient id="linear-gradient-3" x1="61.99" y1="32.06" x2="61.99" y2="12.66" xlink:href="#linear-gradient"/><linearGradient id="linear-gradient-4" x1="78.55" y1="32.06" x2="78.55" y2="12.66" xlink:href="#linear-gradient"/><linearGradient id="linear-gradient-5" x1="96.3" y1="32.06" x2="96.3" y2="12.66" xlink:href="#linear-gradient"/><linearGradient id="linear-gradient-6" x1="115.62" y1="32.06" x2="115.62" y2="12.66" xlink:href="#linear-gradient"/><linearGradient id="linear-gradient-7" x1="65.64" y1="47.78" x2="65.64" y2="45.78" gradientUnits="userSpaceOnUse"><stop offset="0" stop-color="#e74a25"/><stop offset="0.45" stop-color="#fbd007"/><stop offset="1" stop-color="#fff"/></linearGradient></defs><g id="Layer_2" data-name="Layer 2"><g id="Layer_2-2" data-name="Layer 2"><path class="cls-1" d="M9.76,31.13A7.66,7.66,0,0,1,8.55,27.3c-.15-3.1-.47-6.2-.73-9.3a3.68,3.68,0,0,0-1.47-2.67c-.79-.63-1.42-1.47-2.42-2.47,3.21-.31,5.88-.1,8.09,2.1a2.26,2.26,0,0,1,.52,1.31A24.47,24.47,0,0,1,12.86,23l-.63,6.41a2.65,2.65,0,0,1-.32,1.26c-.15.47-.47,1.2-.63,1.2A2.66,2.66,0,0,1,9.76,31.13Zm18.85,9.81c.42-2-.63-3.88-.95-5.82-.58-3.15-1.1-6.3-1.84-9.4-.57-2.78-.31-5.56-.57-8.29a31.55,31.55,0,0,0-.16-3.68,4,4,0,0,0-.58.79,13.2,13.2,0,0,1-3.62,5.3c-1.1.84-1.63.95-2.78.11a11.94,11.94,0,0,1-3-3.1,20.19,20.19,0,0,0-3-2.89,4.08,4.08,0,0,1,5.36.63c1.05,1.26,1.26,1.31,2.46.11C21.68,12.81,23.41,11,25.09,9c.89-1,.42-2.31.21-3.52A11.07,11.07,0,0,1,25,3.57c0-1.16.48-1.47,1.53-1A20.52,20.52,0,0,1,30,4,3.4,3.4,0,0,1,31,8.29a3.39,3.39,0,0,0-.47,1.21C30,12.33,29.39,15.12,29,18a35.32,35.32,0,0,0-.32,5.78,94.26,94.26,0,0,0,1.63,14.33,7.56,7.56,0,0,1,.16,1.83,4.54,4.54,0,0,1-.63,1.63c-.11.16-.63.16-.9.11S28.55,41.15,28.61,40.94Z"/><path class="cls-2" d="M37.79,29.87C37.22,28.45,36.53,27,36,25.56a10.52,10.52,0,0,1-.42-2.25c-.21-1.84-.84-3.57-.47-5.41a3.41,3.41,0,0,0-.11-1,6.68,6.68,0,0,1-.1-1.78c.15-.74.94-.58,1.47-.79.36-.21.57-.68.84-1,.68-.63,1.26-1.31,2.31-.78a.75.75,0,0,0,.47,0c1.84-1,3.73-.11,5.56-.06a38.63,38.63,0,0,1,5.41.74c1.52.26,1.47.68.94,2.15a20.63,20.63,0,0,0-.78,4c-.37,2.94-.84,5.78-3,8a25.35,25.35,0,0,1-1.73,2.26,31.38,31.38,0,0,1-3.62,2.83c-.26.21-.73.06-1.1.11A4,4,0,0,1,37.79,29.87Zm6.09-2.57c2.21-1.79,4.31-3.63,4.78-6.72.26-1.42-.53-3.63-1.73-4.15a28.33,28.33,0,0,0-4-1,3.53,3.53,0,0,0-1.32.42,8.84,8.84,0,0,0-1.68,2,10.46,10.46,0,0,0-1.68,3.15,8.08,8.08,0,0,0,.9,5.94c.78,1.31,1.26,1.68,2.67,1.31A4.74,4.74,0,0,0,43.88,27.3Z"/><path class="cls-3" d="M57,33a2.66,2.66,0,0,1-.42-3.62A3.8,3.8,0,0,0,57,28c-.16-2.73-.37-5.46-.53-8.14-.1-1.26-.16-2.52-.21-3.78-.1-2.62-.16-5.19-.21-7.82a2.76,2.76,0,0,0-1.15-2.36l-4.31-3a2.5,2.5,0,0,1,2.73-.79,13.13,13.13,0,0,1,7.72,4.36,4.2,4.2,0,0,1,1.05,3.62c-.63,4.72-2.31,9.45-1.79,14.22A30,30,0,0,1,60,29.87a15,15,0,0,0,5.82.42,19.43,19.43,0,0,0,2.37-.37c2.46-.89,3.78-.31,5.24,1.73-1.1,1.63-1.1,1.58-2.78,1.42a17.86,17.86,0,0,0-2.83.1c-1.63.21-3.2.42-4.78.69a3.69,3.69,0,0,0-1.57.68,1.92,1.92,0,0,1-2.31.16A17.07,17.07,0,0,1,57,33Z"/><path class="cls-4" d="M76.85,39.42a6.93,6.93,0,0,1-.58-3.25c0-3.31,0-6.67,0-10,0-.94-.16-1.89-.21-2.83l-.47-8.61c0-1-.16-2-.26-3C75.22,10,75.12,8.19,75,6.4a11.22,11.22,0,0,0-.32-1.57c-1.68.52-3.2.89-4.19,2.31-.58.79-1,.94-1.79.42-1.42-1-2.89-2-2.73-4.31a7.66,7.66,0,0,1,1-.42c1.47-.26,2.94-.47,4.41-.78a2.62,2.62,0,0,0,2-1.16A1.21,1.21,0,0,1,75.17.47a7.11,7.11,0,0,0,3.46.37c1.37,0,2.79-.11,4.15,0A3.59,3.59,0,0,0,85.3.26a2.27,2.27,0,0,1,2.36.21,9,9,0,0,1,3.52,3.36,1.42,1.42,0,0,1-1.94,1.1c-1.52-.52-3,0-4.41.21-1.73.27-2,.21-3.1-1.52l.68-.84c-.15-.47-.94-.31-2.31.37a8.56,8.56,0,0,0,.21,1.42c1,2.57.58,5.25.58,7.87s-.47,5.3-.58,8c-.1,2.26.11,4.51,0,6.77-.1,2.1-.42,4.15-.68,6.25a25.44,25.44,0,0,1-.73,3.36,14.9,14.9,0,0,1-1.05,2.94S77.53,40,76.85,39.42Z"/><path class="cls-5" d="M90.87,33.65c-2.26-.9-3.1-2.58-2.94-4.94.31-4.41.52-8.76.73-13.17a8.51,8.51,0,0,0-.21-1.47c-3.1-.69-5.51-1.79-5.88-5.25,5.51,1,11,1,16.38,1.21a19.59,19.59,0,0,1,3.94.73,3,3,0,0,1,1,.84c-.68,1-1.47.63-2.25.53a26.61,26.61,0,0,0-9.82.47,3.54,3.54,0,0,0-.94.52,25.83,25.83,0,0,1,2.36,3.15,27.49,27.49,0,0,1,1.26,3.89c1.89.84,4.62.84,6.82,2.62-.63,1.1-1.57.79-2.47.74-1.15-.16-2.31-.27-3.51-.32-1.84-.05-2.21,1.21-2.31,2.63A4.07,4.07,0,0,0,93.18,27c.2,1.05.47,2.1.73,3.36a22.81,22.81,0,0,0,2.89-.26,31,31,0,0,1,10.34.37,23.25,23.25,0,0,1,2.89,1,15.64,15.64,0,0,1-1.74,1,3.15,3.15,0,0,1-1.15-.21c-4.73-1.68-9.14-.63-13.39,1.63A3.12,3.12,0,0,1,90.87,33.65Z"/><path class="cls-6" d="M120.35,31.5c-.06-1.47,0-3-.06-4.47a2.89,2.89,0,0,0-.52-1.68c-1.47-1.57-3.1-3-4.67-4.51a1.52,1.52,0,0,0-.53-.26A20.12,20.12,0,0,0,113.36,26c-.1,1.68,0,3.36,0,5,0,.48.11,1-.73,1.32a17,17,0,0,1-.79-1.73,52.07,52.07,0,0,1-1.84-11,8.44,8.44,0,0,0-1.47-4.51c-.68-1-1.21-2.05-2-3.41,2.41,0,4.25.47,5.4,2.05a24.51,24.51,0,0,0,5.57,5.61c.89.63,1.41,1.68,2.67,2a8.74,8.74,0,0,0,.16-1c0-4.57-.1-9.14-.21-13.65a6.68,6.68,0,0,0-.58-2.26,18.92,18.92,0,0,0-.73-1.78,1.3,1.3,0,0,0,.37-.37,7.1,7.1,0,0,1,1.15.53c1.94,1.83,3.78,3.78,4.52,6.45a5.82,5.82,0,0,1,0,1.32c-.11,1.1-.27,2.15-.32,3.25-.16,2.2-.21,4.46-.31,6.67a3.82,3.82,0,0,1-.11.68c-.21,3.31-.31,6.61-.63,9.92a38.88,38.88,0,0,1-1,5.35c-.16.79-.68,1.21-1.68,1C120.56,35.59,120.4,33.54,120.35,31.5Z"/><text class="cls-7" transform="translate(42.42 59.16)">Lashes</text><line class="cls-8" x1="1" y1="46.78" x2="130.27" y2="46.78"/></g></g></svg>