<svg xmlns="http://www.w3.org/2000/svg" xmlns:xlink="http://www.w3.org/1999/xlink" viewBox="0 0 669.1 230.61"><defs><style>.cls-1{fill:url(#linear-gradient);}.cls-2{fill:url(#linear-gradient-2);}.cls-3{fill:url(#linear-gradient-3);}.cls-4{fill:url(#linear-gradient-4);}.cls-5{fill:url(#linear-gradient-5);}.cls-6{fill:url(#linear-gradient-6);}</style><linearGradient id="linear-gradient" x1="75.93" y1="193.07" x2="75.93" y2="0.44" gradientUnits="userSpaceOnUse"><stop offset="0" stop-color="#490a00"/><stop offset="1" stop-color="#930900"/></linearGradient><linearGradient id="linear-gradient-2" x1="219.36" y1="193.07" x2="219.36" y2="0.44" xlink:href="#linear-gradient"/><linearGradient id="linear-gradient-3" x1="321.41" y1="193.07" x2="321.41" y2="0.44" xlink:href="#linear-gradient"/><linearGradient id="linear-gradient-4" x1="413.06" y1="193.07" x2="413.06" y2="0.44" xlink:href="#linear-gradient"/><linearGradient id="linear-gradient-5" x1="511.31" y1="193.07" x2="511.31" y2="0.44" xlink:href="#linear-gradient"/><linearGradient id="linear-gradient-6" x1="618.26" y1="193.07" x2="618.26" y2="0.44" xlink:href="#linear-gradient"/></defs><g id="Layer_2" data-name="Layer 2"><g id="Layer_1-2" data-name="Layer 1"><path class="cls-1" d="M32.26,172.32a41.59,41.59,0,0,1-6.69-21.22C24.7,134,23,116.81,21.5,99.67a20.29,20.29,0,0,0-8.13-14.82C9,81.36,5.52,76.71,0,71.19c17.73-1.74,32.55-.58,44.75,11.62,1.74,1.75,2.62,4.65,2.91,7.27a135.64,135.64,0,0,1,1.74,37.48L45.91,163a14.61,14.61,0,0,1-1.74,7c-.87,2.62-2.62,6.68-3.49,6.68C37.78,176.09,34,174.64,32.26,172.32Zm104.32,54.34c2.32-11.34-3.49-21.51-5.23-32.26-3.2-17.43-6.11-34.87-10.17-52C118,127,119.43,111.58,118,96.47c-.58-6.39.58-13.07-.87-20.34-1.16,1.45-2.62,2.91-3.2,4.36-4.94,11-10.17,21.5-20,29.35-6.1,4.65-9,5.23-15.4.58A66.65,66.65,0,0,1,61.9,93.28c-4.07-6.11-10.76-10.47-16.57-16C55.79,70.9,67.71,72.35,75,80.78c5.81,7,7,7.26,13.66.58C98.22,70.9,107.81,60.73,117.11,50c4.94-5.81,2.32-12.79,1.16-19.47-.58-3.49-1.74-7-1.74-10.75,0-6.4,2.61-8.14,8.42-5.82a112.85,112.85,0,0,1,19.18,8.43c7.27,4.36,9.88,16,5.81,23.54a18.89,18.89,0,0,0-2.61,6.68c-3.2,15.69-6.39,31.09-8.43,46.79a198.66,198.66,0,0,0-1.74,32c.58,26.74,4.36,53.18,9,79.34a40.19,40.19,0,0,1,.87,10.17,24.12,24.12,0,0,1-3.49,9c-.58.88-3.49.88-4.94.58C137.74,229.85,136.29,227.82,136.58,226.66Z"/><path class="cls-2" d="M187.44,165.34c-3.2-7.84-7-15.69-9.88-23.83-1.46-3.77-1.75-8.42-2.33-12.49-1.16-10.17-4.65-19.76-2.61-29.93.29-1.75-.29-3.78-.58-5.52-.29-3.2-1.17-6.69-.58-9.89.87-4.06,5.23-3.19,8.13-4.35,2-1.17,3.2-3.78,4.65-5.52,3.78-3.49,7-7.27,12.79-4.36a4,4,0,0,0,2.61,0c10.17-5.23,20.63-.58,30.81-.29a210.49,210.49,0,0,1,29.93,4.07c8.42,1.45,8.13,3.77,5.23,11.91-2.62,7-3.2,14.82-4.36,22.37-2,16.28-4.65,32-16.57,44.46-3.48,4.07-5.81,9-9.58,12.5C229,170.28,222,175.22,215,180.16c-1.45,1.16-4.06.29-6.1.58C198.19,180.16,191.22,175.51,187.44,165.34Zm33.71-14.24c12.2-9.88,23.83-20,26.44-37.19,1.45-7.85-2.91-20-9.59-23s-14.53-3.78-22.37-5.81c-2.33.58-5.53.87-7.27,2.32a48.3,48.3,0,0,0-9.3,11.05c-3.78,5.52-7.84,11.33-9.3,17.43-2.32,11.33-1.16,22.67,4.94,32.84,4.36,7.26,7,9.3,14.82,7.26C213.59,155.17,218.24,153.72,221.15,151.1Z"/><path class="cls-3" d="M293.51,182.78c-5.81-5.52-7-12.21-2.33-20.05,1.17-2.33,2.62-5.52,2.62-7.85-.87-15.11-2-30.22-2.91-45-.58-7-.87-14-1.16-20.92-.58-14.53-.87-28.77-1.16-43.3,0-5.52-2-9.88-6.39-13.08L258.35,16c4.06-5.23,9.59-5.52,15.11-4.36,17.43,2.9,31.38,11.62,42.71,24.12,4.95,5.52,7,11.91,5.82,20-3.49,26.15-12.79,52.31-9.88,78.75,1.16,8.43-1.16,21.21-2,30.8,11.05,2,19.18,4.36,32.26,2.33,3.2-.58,9.88-.87,13.08-2,13.65-4.94,20.92-1.74,29,9.59-6.1,9-6.1,8.72-15.4,7.85a94.68,94.68,0,0,0-15.69.58c-9,1.16-17.72,2.32-26.44,3.78a21,21,0,0,0-8.72,3.77c-4.36,2.91-8.72,3.78-12.79.88S297,186.27,293.51,182.78Z"/><path class="cls-4" d="M403.65,218.23c-2.33-4.65-3.2-9.88-3.2-18,0-18.3.29-36.9,0-55.21,0-5.23-.87-10.46-1.16-15.69l-2.62-47.66c-.29-5.52-.87-11-1.45-16.56-.58-9.88-1.17-19.76-2-29.64a65.77,65.77,0,0,0-1.74-8.72c-9.3,2.91-17.73,4.94-23.25,12.79-3.2,4.35-5.81,5.23-9.88,2.32C350.47,36,342.33,30.51,343.2,18c1.74-.58,3.78-2,5.81-2.32,8.14-1.46,16.28-2.62,24.41-4.36,4.36-.87,8.72-1.74,11.34-6.39,1.74-3.78,6.1-4.07,9.59-2.33,6.39,2.91,12.78,2.33,19.18,2,7.55-.29,15.4-.58,23-.29,4.94,0,9.59.59,13.95-2.9,4.07-2.91,9-.87,13.08,1.16A50,50,0,0,1,483,21.21c-1.75,5.52-5.82,7.84-10.76,6.1-8.42-2.91-16.56,0-24.41,1.16-9.58,1.46-11.33,1.17-17.14-8.42l3.78-4.65c-.87-2.62-5.23-1.75-12.79,2,.29,2.33.29,5.23,1.16,7.85,5.53,14.24,3.2,29.06,3.2,43.59-.29,14.81-2.62,29.34-3.2,44.17-.58,12.49.58,25,0,37.48-.58,11.63-2.32,23-3.77,34.58A133.8,133.8,0,0,1,415,203.7,77.51,77.51,0,0,1,409.17,220S407.42,221.13,403.65,218.23Z"/><path class="cls-5" d="M481.23,186.27C468.74,181.32,464.09,172,465,159c1.74-24.41,2.9-48.53,4.07-72.94.29-2.61-.87-4.94-1.17-8.14C450.72,74.1,437.35,68,435.32,48.82c30.51,5.52,60.73,5.52,90.66,6.68,7.56.29,14.82,2.32,21.8,4.07,2,.58,3.77,2.9,5.52,4.65-3.78,5.23-8.14,3.48-12.5,2.9a148.82,148.82,0,0,0-54.34,2.62c-1.45.29-2.9,1.45-5.23,2.9,4.65,6.11,9.88,11.34,13.08,17.44,3.2,5.81,4.07,12.78,7,21.5,10.46,4.65,25.58,4.65,37.78,14.53-3.49,6.11-8.72,4.36-13.66,4.07-6.39-.87-12.78-1.45-19.47-1.74-10.17-.29-12.2,6.68-12.78,14.53-.29,2,.58,4.07.87,6.39,1.16,5.81,2.61,11.62,4.07,18.6a128.68,128.68,0,0,0,16-1.46c19.18-2.32,38.36-2,57.25,2,4.36.87,8.71,2.91,16,5.52-4.94,2.91-7.27,4.65-9.59,5.52-2,.29-4.36-.58-6.39-1.16-26.16-9.3-50.57-3.49-74.11,9C491.11,190.62,486.17,188.3,481.23,186.27Z"/><path class="cls-6" d="M644.43,174.35c-.29-8.14,0-16.56-.29-24.7-.29-3.2-.87-7.26-2.9-9.3-8.14-8.72-17.15-16.85-25.87-25a8.79,8.79,0,0,0-2.9-1.45,110.87,110.87,0,0,0-6.69,30.22c-.58,9.3-.29,18.6-.29,27.89,0,2.62.58,5.53-4.07,7.27-1.45-3.2-3.19-6.1-4.36-9.59-6.1-19.76-8.42-40.1-10.17-60.73-.58-9.3-2.9-17.44-8.13-25-3.78-5.52-6.69-11.34-11.33-18.89,13.36,0,23.53,2.61,29.93,11.33a135.47,135.47,0,0,0,30.8,31.09c4.94,3.49,7.84,9.3,14.82,11.34.29-2.33.87-4.07.87-5.81-.29-25.28-.58-50.57-1.16-75.56,0-4.36-1.75-8.43-3.2-12.49a97.24,97.24,0,0,0-4.07-9.88,7,7,0,0,0,2-2c2,1.16,4.65,1.45,6.39,2.91,10.75,10.17,20.92,20.92,25,35.74.58,2.33,0,4.65,0,7.27-.58,6.1-1.45,11.91-1.74,18-.88,12.21-1.16,24.7-1.75,36.91a20.17,20.17,0,0,1-.58,3.78c-1.16,18.3-1.74,36.61-3.48,54.92-.88,9.88-3.49,19.76-5.82,29.64-.87,4.36-3.77,6.68-9.3,5.81C645.59,197,644.72,185.68,644.43,174.35Z"/></g></g></svg>