<svg xmlns="http://www.w3.org/2000/svg" viewBox="0 0 94.93 79.23"><defs><style>.cls-1{fill:red;}.cls-2{fill:#ffbc00;}.cls-10,.cls-3,.cls-5,.cls-6,.cls-8{fill:#fff;}.cls-4{fill:#ffb000;}.cls-5,.cls-7{opacity:0.47;}.cls-6{opacity:0.53;}.cls-8{opacity:0.51;}.cls-9{fill:#fff5cc;}.cls-10{opacity:0.54;}.cls-11{fill:#ff2020;}.cls-12{fill:#ffba20;}.cls-13{fill:#fffefd;}</style></defs><g id="Layer_2" data-name="Layer 2"><g id="Layer_1-2" data-name="Layer 1"><rect class="cls-1" x="33.08" y="49.75" width="3.3" height="5.32" transform="translate(-0.22 0.15) rotate(-0.24)"/><rect class="cls-1" x="53.16" y="49.76" width="3.3" height="4.82" transform="translate(-0.22 0.23) rotate(-0.24)"/><rect class="cls-1" x="34.94" y="60.87" width="4.93" height="3.3" transform="translate(-33.32 45.05) rotate(-45.24)"/><rect class="cls-1" x="50.71" y="59.82" width="3.3" height="5.34" transform="translate(-28.88 55.67) rotate(-45.24)"/><rect class="cls-1" x="49.35" y="40.23" width="5.82" height="3.3" transform="translate(-14.27 49.49) rotate(-45.24)"/><rect class="cls-1" x="35.58" y="39.01" width="3.3" height="5.86" transform="translate(-18.77 38.85) rotate(-45.24)"/><path class="cls-1" d="M44.87,69.72a16.78,16.78,0,0,1-11.06-4.2,18.53,18.53,0,0,1-6-10.06h0a1.65,1.65,0,0,1,1.6-2l12.13-.1A1.62,1.62,0,0,1,43.2,55l.09,7.19a1.39,1.39,0,0,1-1.82,1.35l-.34-.11a11.36,11.36,0,0,1-5.27-3.54l-.63-.75a1.19,1.19,0,0,1,.9-2l3.8,0v-.46l-8.28.07c2,5.66,7.43,9.69,13.21,9.67a14.63,14.63,0,0,0,13.41-9.8l-8.53,0v.45l4.15,0a1,1,0,0,1,.79,1.67l-.85,1a11.61,11.61,0,0,1-5.18,3.58l-.58.21a1.21,1.21,0,0,1-1.61-1.14l0-6.62a2.46,2.46,0,0,1,2.44-2.46l11.56,0a1.65,1.65,0,0,1,1.62,2h0A18,18,0,0,1,44.87,69.72Z"/><path class="cls-1" d="M41,51.46l-12.16-.11a1.41,1.41,0,0,1-1.37-1.7l.06-.29C29.28,41.22,36.65,35.05,44.72,35s15.36,6.07,17.14,14.2h0a1.65,1.65,0,0,1-1.61,2H48.4a2,2,0,0,1-2-2l-.09-7a1.15,1.15,0,0,1,1.51-1.1l.66.21a11.38,11.38,0,0,1,5.29,3.57l.8,1a1.06,1.06,0,0,1-.8,1.74l-4.09,0v.32h8.38a14.59,14.59,0,0,0-13.31-9.61,14.7,14.7,0,0,0-13.38,9.76l8.31.08a.25.25,0,0,0,.25-.24h0a.24.24,0,0,0-.24-.24H36.54a1.41,1.41,0,0,1-1.1-2.3l.32-.39A11.67,11.67,0,0,1,41,41.38l.73-.25a1.09,1.09,0,0,1,1.45,1l.09,7.12A2.16,2.16,0,0,1,41,51.46Z"/><circle class="cls-2" cx="44.93" cy="52.39" r="1.97"/><circle class="cls-3" cx="44.87" cy="52.32" r="1.31"/><path class="cls-4" d="M58.34,47.86l-.15-.38L58,47l-.11-.29-.15-.32-.35-.74-.47-.84a17,17,0,0,0-1.33-1.89,14.17,14.17,0,0,0-4.47-3.6L50.41,39l-.36-.16-.38-.14c-.26-.08-.51-.19-.78-.26l-.79-.22a14.71,14.71,0,0,0-3.32-.4,14.37,14.37,0,0,0-6.35,1.39,14.94,14.94,0,0,0-4.55,3.41A13.71,13.71,0,0,0,31.65,46c-.11.22-.18.43-.26.61l-.18.46a3.3,3.3,0,0,0-.13.43.63.63,0,0,1-.7.47.59.59,0,0,1-.3-.79s.06-.19.16-.47l.21-.5c.09-.19.17-.41.3-.65A14.71,14.71,0,0,1,33.23,42a15.87,15.87,0,0,1,4.9-3.46,15.33,15.33,0,0,1,10.07-.75l.82.24c.26.09.52.2.78.3l.39.15.37.18.73.36a14.38,14.38,0,0,1,4.44,3.78,15.19,15.19,0,0,1,1.29,2l.45.86.33.76.14.32L58,47l.16.47Z"/><path class="cls-4" d="M31.24,56.6l.15.39.17.45.11.29.15.32.35.74.47.85A18,18,0,0,0,34,61.53a14.15,14.15,0,0,0,4.47,3.59l.72.33.37.17.38.13c.26.09.51.19.77.27l.8.21a14.71,14.71,0,0,0,3.32.4,14.36,14.36,0,0,0,6.35-1.38,15.1,15.1,0,0,0,4.55-3.41,13.92,13.92,0,0,0,2.22-3.38,4.82,4.82,0,0,0,.26-.61l.19-.46c.09-.26.12-.42.13-.44a.62.62,0,0,1,.7-.46c.28.07.41.42.3.79,0,0-.06.19-.16.46l-.22.5a5.74,5.74,0,0,1-.29.65,14.71,14.71,0,0,1-2.48,3.54,15.89,15.89,0,0,1-4.9,3.47,15.39,15.39,0,0,1-10.07.74l-.82-.24c-.27-.08-.52-.2-.78-.3L39.39,66,39,65.78c-.25-.13-.5-.24-.73-.37a14.41,14.41,0,0,1-4.45-3.78,16.93,16.93,0,0,1-1.28-1.94l-.45-.87-.33-.75-.14-.32-.1-.3L31.38,57Z"/><path class="cls-5" d="M31.17,56.73l.14.38.17.45.1.29.15.31.34.74c.13.26.29.54.46.83a13.92,13.92,0,0,0,5.76,5.41,15,15,0,0,0,6.32,1.5c.56,0,1.12,0,1.67,0h.21l.21,0,.41-.06.41-.06.2,0,.21,0,.8-.18.19,0,.2-.07L49.5,66A12,12,0,0,0,51,65.4a14.23,14.23,0,0,0,4.62-3.32c.27-.32.53-.63.77-.93s.44-.61.62-.9l.5-.82.36-.74c.12-.22.19-.43.27-.61l.18-.47a4.53,4.53,0,0,0,.14-.44c.11-.33.29-.58.4-.55s.11.33,0,.68c0,0-.05.18-.15.45l-.2.48a6.27,6.27,0,0,1-.27.63l-.39.76-.52.84c-.19.3-.42.59-.65.91s-.52.62-.8,1a14.66,14.66,0,0,1-4.76,3.35,15.41,15.41,0,0,1-1.53.55l-.39.12-.2.06-.2,0-.82.17-.2,0-.21,0-.42,0-.42.05-.21,0H46.3c-.56,0-1.13.06-1.69,0a15.26,15.26,0,0,1-6.38-1.6,13.84,13.84,0,0,1-4.44-3.6,16.18,16.18,0,0,1-1.3-1.9L32,58.91l-.33-.74-.14-.32-.1-.28-.17-.46Z"/><path class="cls-5" d="M58.26,47.81l-.14-.38L58,47l-.1-.29-.15-.31-.34-.74c-.14-.26-.3-.53-.46-.83a14.62,14.62,0,0,0-1.31-1.87,13.56,13.56,0,0,0-4.45-3.53,15,15,0,0,0-6.33-1.51c-.55,0-1.11,0-1.67,0l-.2,0-.21,0-.41.06-.41.06-.21,0-.2,0-.8.18-.2,0-.19.06-.39.12a12.67,12.67,0,0,0-1.49.56,14.29,14.29,0,0,0-4.61,3.32c-.27.33-.54.63-.77.93s-.44.61-.63.9l-.49.82-.37.74c-.12.22-.18.44-.26.62l-.19.46c-.09.26-.13.42-.14.44-.1.34-.28.58-.39.56s-.11-.34,0-.69c0,0,.05-.18.15-.45l.19-.48c.09-.18.16-.41.28-.63l.39-.75.52-.85c.19-.3.42-.59.65-.91s.52-.62.8-.94a14.51,14.51,0,0,1,4.76-3.35,12.48,12.48,0,0,1,1.52-.56l.4-.12.2-.06.2,0,.82-.17.2,0,.21,0,.42-.06.42,0,.2,0h.22a15.89,15.89,0,0,1,1.69,0,15.3,15.3,0,0,1,6.38,1.6,13.83,13.83,0,0,1,4.44,3.61,14.16,14.16,0,0,1,1.29,1.89l.46.84.33.74.14.32L58,47l.17.45Z"/><path class="cls-4" d="M29,49.61,41.59,49c.12,0,.23.23.23.52s-.1.52-.23.53Z"/><path class="cls-4" d="M41.52,42.74s.55,7.15.55,7.22-.23.13-.52.14S41,50,41,50,41.52,42.74,41.52,42.74Z"/><path class="cls-6" d="M29,49.64l13.1.58a.22.22,0,0,1,.23.22.23.23,0,0,1-.25.19Z"/><path class="cls-6" d="M41.52,42.76l1,7.52c0,.08-.08.15-.19.16s-.22,0-.23-.12S41.52,42.76,41.52,42.76Z"/><g class="cls-7"><path class="cls-4" d="M60.64,55.51,48,56.08c-.12,0-.23-.23-.23-.52S47.9,55,48,55,60.64,55.51,60.64,55.51Z"/><path class="cls-4" d="M48.1,62.38s-.55-7.16-.55-7.23.23-.13.52-.14.52.06.52.13S48.1,62.38,48.1,62.38Z"/><path class="cls-3" d="M60.64,55.48l-13.1-.58a.24.24,0,0,1-.23-.23.23.23,0,0,1,.25-.19Z"/><path class="cls-3" d="M48.1,62.35l-1-7.52c0-.08.08-.15.19-.16s.22,0,.22.12S48.1,62.35,48.1,62.35Z"/></g><path class="cls-4" d="M28.9,55.5l12.6-.58c.13,0,.23.24.23.52s-.1.53-.22.53Z"/><path class="cls-4" d="M41.49,62.26s-.55-7.15-.55-7.22.23-.14.52-.14S42,55,42,55,41.49,62.26,41.49,62.26Z"/><path class="cls-6" d="M28.9,55.47,42,54.36a.22.22,0,0,1,.25.19.22.22,0,0,1-.22.23Z"/><path class="cls-6" d="M41.49,62.23s.5-7.48.5-7.56.11-.13.22-.12.21.08.2.16S41.49,62.23,41.49,62.23Z"/><path class="cls-4" d="M60.5,49.33l-12.6.58c-.13,0-.23-.23-.23-.52s.1-.53.22-.53Z"/><path class="cls-4" d="M47.91,42.57s.55,7.15.55,7.23-.23.13-.52.13-.52-.06-.52-.13S47.91,42.57,47.91,42.57Z"/><path class="cls-8" d="M60.5,49.36,47.44,50.47a.23.23,0,0,1-.26-.19.24.24,0,0,1,.23-.23Z"/><path class="cls-8" d="M47.91,42.6s-.5,7.49-.5,7.56-.11.13-.23.12-.2-.08-.19-.16S47.91,42.6,47.91,42.6Z"/><path class="cls-4" d="M36,51s0,2.59,0,2.61a1.67,1.67,0,0,1-.53-.06,1.38,1.38,0,0,1-.5-.16Z"/><path class="cls-5" d="M36.05,51s.22,2.47.22,2.5-.1,0-.21,0-.21,0-.21,0S36.05,51,36.05,51Z"/><path class="cls-4" d="M53.86,53.64s0-2.58,0-2.61a1.86,1.86,0,0,1,.52.07,1.82,1.82,0,0,1,.5.15Z"/><path class="cls-5" d="M53.82,53.57s-.22-2.47-.22-2.5.1,0,.21,0,.21,0,.21,0S53.82,53.57,53.82,53.57Z"/><path class="cls-4" d="M40.6,61.56l-.22,0h-.12l-.14,0a2.66,2.66,0,0,1-.32-.09,6.32,6.32,0,0,1-1.6-.86,15.91,15.91,0,0,1-1.41-1.17L36.36,59l-.18-.18c0-.05.13-.23.36-.4s.44-.28.47-.25l.12.2.33.48a12.42,12.42,0,0,0,1.09,1.35,5.57,5.57,0,0,0,1.31,1.11c.1.07.21.1.29.15l.13,0,.11,0Z"/><path class="cls-5" d="M40.16,61.31H40a2.39,2.39,0,0,1-.49-.14,3.66,3.66,0,0,1-1.21-.95,8.32,8.32,0,0,1-.89-1.28,4.71,4.71,0,0,1-.25-.45l-.1-.19s.06-.12.17-.16.2,0,.22,0l.07.19c0,.11.11.27.2.46a8.61,8.61,0,0,0,.74,1.31,3.54,3.54,0,0,0,1.08,1,1.86,1.86,0,0,0,.46.18Z"/><path class="cls-4" d="M37.16,47v-.34l0-.14a2.77,2.77,0,0,1,.09-.33,6.19,6.19,0,0,1,.87-1.59,13.06,13.06,0,0,1,1.17-1.41l.43-.44.18-.17s.22.12.39.35.29.44.25.47l-.19.13-.48.32a13.78,13.78,0,0,0-1.36,1.09,6.08,6.08,0,0,0-1.11,1.32,1.53,1.53,0,0,0-.14.29l-.06.12,0,.11Z"/><path class="cls-5" d="M37.4,46.52a1.29,1.29,0,0,1,0-.19,1.65,1.65,0,0,1,.13-.48,3.56,3.56,0,0,1,1-1.21,7.79,7.79,0,0,1,1.28-.9c.18-.11.34-.19.46-.25l.18-.09s.12.05.16.16.05.21,0,.22l-.19.08-.46.19a8.68,8.68,0,0,0-1.3.75,3.44,3.44,0,0,0-1,1.07,1.9,1.9,0,0,0-.18.47C37.41,46.45,37.4,46.52,37.4,46.52Z"/><path class="cls-4" d="M49.43,43.39h.35l.13,0a2.61,2.61,0,0,1,.33.08,6,6,0,0,1,1.59.87,14.58,14.58,0,0,1,1.41,1.17c.18.18.34.32.44.43l.17.18s-.12.22-.35.4-.44.28-.47.24l-.13-.19c-.07-.12-.19-.28-.32-.48a15.05,15.05,0,0,0-1.09-1.36,6.08,6.08,0,0,0-1.32-1.11,2.53,2.53,0,0,0-.29-.14l-.12-.05-.11,0Z"/><path class="cls-5" d="M49.88,43.64h.19a1.88,1.88,0,0,1,.49.14,3.53,3.53,0,0,1,1.21,1A8.28,8.28,0,0,1,52.66,46c.11.19.19.35.25.46l.09.19s0,.11-.16.16-.21,0-.22,0l-.07-.18-.2-.46a7.56,7.56,0,0,0-.75-1.31,3.41,3.41,0,0,0-1.07-1,2,2,0,0,0-.46-.18Z"/><path class="cls-4" d="M52.58,57.52v.34l0,.14a1.57,1.57,0,0,1-.09.32,6,6,0,0,1-.86,1.6,15.91,15.91,0,0,1-1.17,1.41c-.18.18-.32.33-.43.43l-.18.18s-.23-.13-.4-.36-.28-.44-.24-.47l.19-.12.48-.33a12.42,12.42,0,0,0,1.35-1.09,5.89,5.89,0,0,0,1.12-1.31c.06-.1.1-.21.14-.29l.05-.13,0-.11Z"/><path class="cls-5" d="M52.33,58s0,.07,0,.19a2.39,2.39,0,0,1-.14.49,3.53,3.53,0,0,1-1,1.21,8.28,8.28,0,0,1-1.27.89L49.5,61l-.19.1s-.11-.06-.16-.17,0-.2,0-.22l.18-.07c.12-.05.28-.11.46-.2a8.16,8.16,0,0,0,1.31-.74,3.54,3.54,0,0,0,1-1.08,1.86,1.86,0,0,0,.18-.46Z"/><path class="cls-1" d="M17.59,70.52s27.87,8.66,43.54-2.87S85.38,19.18,85.38,19.18s-10.47,7-23.48,6.28S33.58,24.07,24.23,35.85c-7.5,9.42-9.66,18.1-11.32,23.41-2.86,9.23-1.48,8.12-1.48,8.12s1.89,3.83,9.28-15.1C29,30.94,48.09,31,60.39,33c10,1.66,13,.47,13,.47s-.45,12.71-5.54,22a34,34,0,0,1-19,16.33C39.23,75.1,17.59,70.52,17.59,70.52Z"/><path class="cls-1" d="M12.94,60s-1.53-1.05-.78-5.81a25.1,25.1,0,0,0-.5-7.57,20,20,0,0,1,.82,4.69c.18,4,.11,7.36,1.55,5.79"/><path class="cls-1" d="M15,53.34s-2.3-.8-.57-6.35a21.61,21.61,0,0,0,.84-9,18.82,18.82,0,0,1-.17,7.67c-1.14,6,1.24,3.77,1.24,3.77Z"/><path class="cls-1" d="M17.78,48.42c0-.15-1.78-1.41-.17-7.67,1.68-6.53.78-10.47.78-10.47s1.74,2.95.34,10c-.89,4.46,1,2.29,1,2.29Z"/><path class="cls-1" d="M22.08,40.46s-2.27-1.9.52-5.86c3.06-4.34,2.42-10,2.42-10s1.39,5.94-.9,9.08c-2.58,3.54-.35,2.79-.35,2.79Z"/><path class="cls-1" d="M26.64,34s-2-3.25,1.86-6.82C32.11,23.86,32.14,17,32.14,17s.28,6.43-1.85,9.59C27,31.47,30,30.66,30,30.66Z"/><path class="cls-1" d="M33,29.36a7.31,7.31,0,0,1,3.32-7.66c5-3.15,8-12.45,8-12.45s-2.27,8.14-6,11.8c-5.35,5.29-1.42,6.09-1.42,6.09Z"/><path class="cls-1" d="M40.6,27c-1.5-2.58-.22-6.53,5-8.35,6.48-2.26,8.73-12.39,8.73-12.39.32.11-.87,6.5-6.31,12.55-5.93,6.58-2,6.73-2,6.73Z"/><path class="cls-1" d="M49.52,26.22s-1-7.48,8.94-9.66C66.82,14.74,70.68,1.39,70.68,1.39S67.63,14.61,60.19,18.13c-9,4.28-3.29,7.27-3.29,7.27Z"/><path class="cls-1" d="M60.11,26.17s-3-5.26,12.3-10C82.39,13,84,.59,84,.59S84,13.27,73.7,18.21c-7.39,3.55-4.94,7.22-4.94,7.22Z"/><path class="cls-1" d="M73.09,24.77s1.69-5.27,10.62-7.51C93.64,14.77,94.86,0,94.86,0a26.57,26.57,0,0,1-5.92,18.39c-5.16,6.31-8.53,17.24-8.53,17.24Z"/><path class="cls-1" d="M74.12,49.52a26.22,26.22,0,0,0,8.8-13.34c2.49-8.92,6.64-13.52,6.64-13.52s-4.26,3.63-7.67,13.09C79.5,42.37,79.07,39,79.07,39Z"/><path class="cls-1" d="M65.44,62.68A21,21,0,0,0,77.3,51.92C81.43,43.46,86.46,41,86.46,41s-3.53,1.75-8.76,8.57-4.4,2.48-4.4,2.48Z"/><path class="cls-1" d="M54.32,71.09S59.59,74,65.69,67.9c5.93-5.92,10.25-6.13,10.25-6.13s-4.5,0-10,4.86-6,1.84-6,1.84Z"/><path class="cls-1" d="M45.36,73.07a6.11,6.11,0,0,0,6.31,1,14.19,14.19,0,0,1,6.11-.51,12.29,12.29,0,0,0-5.47-.3c-3,.81-1-1.06-1-1.06Z"/><path class="cls-1" d="M38.38,73.29c.14.07,1.29,2,4.79,1.77a12.15,12.15,0,0,1,4.87.8s-2.4-1.6-4.39-1.31c-2.46.36-1.35-1.06-1.35-1.06Z"/><path class="cls-1" d="M19.28,55.82a29.39,29.39,0,0,0-1.67,6.07A7,7,0,0,1,16.51,65s1.53,2,1.31,3.74-.24,0-.24,0S16.35,68,16.3,67.55,14.54,69.36,14.39,70,14,72.51,14,72.51a1.5,1.5,0,0,1-.66-1.3c0-.9-.85,1.08-1,1.69S12.2,75,12.2,75A6.29,6.29,0,0,1,12,72.49c.23-1,0-.51,0-.51a2.2,2.2,0,0,0-1.28,1.36c-.38,1.06-.58-.53-.16-1s1.25-1.24,1.25-1.24l2.74-5.48,1.55-4.84L17,55.5Z"/><path class="cls-1" d="M33.6,72.89a16.59,16.59,0,0,0-6.12.69c-2.51,1-7.11,5.23-7.11,5.23S22.48,70.71,33.6,72.89Z"/><path class="cls-1" d="M25.83,72.25a21.65,21.65,0,0,0-6.45,1.81,28.13,28.13,0,0,0-7.2,5.17S14.07,70.87,25.83,72.25Z"/><path class="cls-1" d="M29.31,72.54S24.4,71.61,23.59,70s-.86.3.41,1.32S29.31,72.54,29.31,72.54Z"/><path class="cls-1" d="M24.78,72s-6.09.94-7.27-.92,1.63,0,3.43.07A15.59,15.59,0,0,1,24.78,72Z"/><path class="cls-1" d="M6.25,71.44S.62,70.69.9,69.27C1.31,67.14,4,67.75,4,67.75S5,66.81,5.69,66.1s1.84-.9,3.73-1.27c2.37-.46,3.49-5.57,3.49-5.57l2.66,7.52s-4.31,5.41-5.28,6.71a6.76,6.76,0,0,0-2.49,1c-1.48,1.22-3.9.18-3.52-.58A7.39,7.39,0,0,1,6.25,71.44Z"/><path class="cls-9" d="M4.09,69.12s0,0,0,0a.5.5,0,0,1,.37.09h0v.05a.83.83,0,0,1,0,.13,2.35,2.35,0,0,0,0,.38.8.8,0,0,0,.1.32l.06.07,0,0,0,.07.07.07.07.07c.2.12.13.2-.06.21,0,0-.09,0-.2,0a.63.63,0,0,1-.37-.3A1.24,1.24,0,0,1,4,69.81a2.39,2.39,0,0,1,0-.48A1,1,0,0,1,4.09,69.12Z"/><path class="cls-9" d="M1.84,69.6h0a.44.44,0,0,1,.38.09h0v0a.39.39,0,0,0,0,.13,1.19,1.19,0,0,0,0,.38.63.63,0,0,0,.1.31.28.28,0,0,0,.06.08l0,0,.06.07.06.06.08.07c.2.13.12.21-.06.22a.54.54,0,0,1-.21,0L2.1,71a1.94,1.94,0,0,1-.16-.19,1.23,1.23,0,0,1-.15-.49,1.8,1.8,0,0,1,0-.47C1.82,69.69,1.84,69.61,1.84,69.6Z"/><path class="cls-9" d="M6.69,74h0a.61.61,0,0,1-.35.14h0l0-.14c0-.08,0-.19-.07-.3a2,2,0,0,1,0-.46.37.37,0,0,1,0-.09A.39.39,0,0,1,6.3,73c.13-.14.19,0,.21.06s0,.21,0,.21a1.52,1.52,0,0,0,0,.36c0,.09,0,.18.06.25S6.69,74,6.69,74Z"/><path class="cls-9" d="M4.67,73.82h0a.79.79,0,0,1-.35.14h0l0-.14a1.91,1.91,0,0,1-.07-.3,2,2,0,0,1,0-.46.37.37,0,0,1,0-.09.49.49,0,0,1,.1-.15c.14-.14.2,0,.22.06s0,.21,0,.21a1.5,1.5,0,0,0,0,.36,1.53,1.53,0,0,0,.06.25Z"/><path class="cls-10" d="M14.91,66a3.89,3.89,0,0,0,.58-.76l.12-.2.08-.14.1-.16c0-.06.07-.12.1-.19l.21-.41a5.11,5.11,0,0,0,.36-2v-.88s0,0,0,0l0,0-.29.42-.14.22-.07.11-.55.89c-.18.3-.36.59-.55.85l-.15.2-.07.09,0,0h0l0-.08c0-.14.09-.27.14-.4s.24-.49.35-.7a7.32,7.32,0,0,0,.48-1.09c.09-.27.13-.42.13-.42s0-.1.07-.31l0-.09v0a.35.35,0,0,0,0-.06l.06-.39,0-.21v-.06l0,0-.1.08-.21.16-.11.09a.36.36,0,0,0-.09.08A6.54,6.54,0,0,0,14.4,62l-.26.41-.13.21-.06.09h0v0c0-.16.07-.33.12-.5a2.77,2.77,0,0,1,.21-.53l.27-.55.14-.28,0-.07v0h0l0,0-.12.09-.49.35-.22.17-.13.11a12.54,12.54,0,0,0-1,1l-.25.25-.12.13-.05,0-.1.09-.31.28a5.15,5.15,0,0,0-.65.69,2.66,2.66,0,0,0,.82-.5c.07-.05.18-.16.32-.28l.1-.1.05,0,.13-.12.25-.26a10.69,10.69,0,0,1,1-1l.11-.1,0,0h0a3.32,3.32,0,0,0-.22.55c-.05.19-.08.36-.12.52l-.25,1.14v.1l0,0,.08-.11.16-.22.3-.41.15-.22.08-.13.14-.22.26-.4a6.75,6.75,0,0,1,.91-1.21h0v0l0,.15c0,.2-.07.3-.07.3a3.5,3.5,0,0,1-.12.41,7.43,7.43,0,0,1-.47,1.05c-.11.21-.24.45-.35.72a4.09,4.09,0,0,0-.16.42l0,.14-.06.21-.07.41,0,.11s0,0,0,0l0,0,.16-.15.32-.3.08-.09.05-.06.08-.09.15-.21c.2-.27.38-.57.56-.86l.54-.89.07-.11h0v0A4.8,4.8,0,0,1,15.86,64c-.06.14-.13.27-.19.4l-.11.18-.09.16-.08.14-.12.2A3.14,3.14,0,0,0,14.91,66Z"/><path class="cls-11" d="M9.9,64.79s0,0,0,0a1,1,0,0,1-.08.27c0,.1-.15.22-.42.11l-.07,0a1.11,1.11,0,0,1-.14-.79A1.79,1.79,0,0,1,9.3,64a2,2,0,0,1,.18-.29,4.15,4.15,0,0,1,.93-.9,1,1,0,0,0,.3-.37.52.52,0,0,0,.06-.12,1.8,1.8,0,0,0,.14-.35,5.3,5.3,0,0,0,.16-1.09c0-.6,0-.8.1-.75a1.52,1.52,0,0,1,.27.74,4,4,0,0,1,.07.94,2.57,2.57,0,0,1-.12.71,1.54,1.54,0,0,1-.09.24l0,.08a1.73,1.73,0,0,1-.19.28,1.86,1.86,0,0,1-.26.23,4.29,4.29,0,0,0-.78.75,1.86,1.86,0,0,0-.11.19.48.48,0,0,0-.06.18A.43.43,0,0,0,9.9,64.79Z"/><path class="cls-11" d="M7.49,65.35s0,0,0,0a.47.47,0,0,1-.19.24c-.1.06-.24.07-.43-.09l0-.05a3.94,3.94,0,0,1-.06-1.24A2.37,2.37,0,0,1,7,63.53a2.33,2.33,0,0,1,.2-.34,1.79,1.79,0,0,1,.27-.28,1.34,1.34,0,0,1,.31-.22l.16-.09L8,62.53l.15-.06.15-.08.18-.11.1-.07.09-.08A1.49,1.49,0,0,0,8.88,62a1.22,1.22,0,0,0,.22-.44,1.84,1.84,0,0,0,0-.58c0-.11,0-.16.06-.14a1,1,0,0,1,.28.79,1.63,1.63,0,0,1-.05.29,1.15,1.15,0,0,1-.12.32,1.72,1.72,0,0,1-.22.33,1.94,1.94,0,0,1-.28.29l-.27.2-.28.17-.11.06-.09,0a.76.76,0,0,0-.17.13,1.35,1.35,0,0,0-.45.92A3.12,3.12,0,0,0,7.49,65.35Z"/><path class="cls-12" d="M1.42,70.09a2,2,0,0,1-.22-.32.3.3,0,0,1,0-.25,1,1,0,0,1,.56-.19,2.2,2.2,0,0,1,.37,0H3l.76,0c.26,0,.53,0,.79.07a10.63,10.63,0,0,1,1.58.43,6.08,6.08,0,0,0,1.6.37,2.54,2.54,0,0,0,.39,0l.36,0,.62,0c.38,0,.69,0,.91,0l.34,0,.22,0,.4.07h0l-.06.09a7.06,7.06,0,0,1-.8,1.14,10.14,10.14,0,0,1-.8.82,4.93,4.93,0,0,1-.49.39,4.3,4.3,0,0,0-.56.42,6,6,0,0,0-.5.51,3.92,3.92,0,0,1-.43.46,1,1,0,0,1-.5.19H6.51a4,4,0,0,1-.73,0L5,74.11a6.88,6.88,0,0,1-.72-.21,2.8,2.8,0,0,0,.6.5,2.88,2.88,0,0,0,.82.3,4,4,0,0,0,.82.06h.23l.17,0a1.3,1.3,0,0,0,.7-.27,4,4,0,0,0,.5-.52,5,5,0,0,1,.45-.47,4.15,4.15,0,0,1,.52-.39,4.45,4.45,0,0,0,.53-.42,8.36,8.36,0,0,0,.84-.86,7.64,7.64,0,0,0,.85-1.2l.06-.1.1-.18.17-.32a3.88,3.88,0,0,0-.58-.13l-.41-.07-.22,0-.36,0c-.23,0-.55,0-1,0-.21,0-.42,0-.66,0l-.34,0a1.93,1.93,0,0,1-.34,0,5.89,5.89,0,0,1-1.5-.35,10.81,10.81,0,0,0-1.65-.45c-.29,0-.56,0-.82-.07l-.78,0h-1l-.4.05a1.51,1.51,0,0,0-.48.16.7.7,0,0,0-.2.15.4.4,0,0,0-.12.27.54.54,0,0,0,.21.41A1.58,1.58,0,0,0,1.42,70.09Z"/><path class="cls-12" d="M3.74,67.73c-.31-.12-.52-.2-.88-.31-.06,0-.17-.06-.35-.15a.67.67,0,0,1-.36-.41.54.54,0,0,1,.06-.32.67.67,0,0,1,.2-.26A.72.72,0,0,1,3,66.21a1.75,1.75,0,0,1,.27.05l.24,0a3.67,3.67,0,0,0,.59.07,2.32,2.32,0,0,0,.77-.11,2.47,2.47,0,0,0,.63-.34,3.91,3.91,0,0,0,.46-.41,2.29,2.29,0,0,0,.48-.83c-.25.22-.41.38-.67.65a3,3,0,0,1-.42.38,2,2,0,0,1-.57.3,1.71,1.71,0,0,1-.67.1,3.84,3.84,0,0,1-.56-.06l-.23,0L3,66l-.32,0a.78.78,0,0,0-.42.14.82.82,0,0,0-.28.36.74.74,0,0,0-.09.47.77.77,0,0,0,.21.39,1.17,1.17,0,0,0,.29.2,2.09,2.09,0,0,0,.39.17A2,2,0,0,0,3.74,67.73Z"/><path class="cls-12" d="M1.92,67.91c-.25-.22-.41-.38-.67-.64A2.37,2.37,0,0,1,1,67a1.14,1.14,0,0,1-.13-.46A1.15,1.15,0,0,1,1.06,66a.67.67,0,0,1,.3-.32l.13,0,.05,0H1.7a1.72,1.72,0,0,1,.43,0c.35.06.77.19,1.1.22a1.28,1.28,0,0,0,.64-.07.72.72,0,0,0,.39-.4,1.05,1.05,0,0,0,.06-.47,2.24,2.24,0,0,1-.22.38.87.87,0,0,1-.33.26,1.06,1.06,0,0,1-.51,0c-.3,0-.72-.15-1.09-.21a2.16,2.16,0,0,0-.48,0h-.2l-.07,0-.17.06a.88.88,0,0,0-.42.43,1.48,1.48,0,0,0-.18.67,1.55,1.55,0,0,0,.16.57,1.28,1.28,0,0,0,.26.35A1.52,1.52,0,0,0,1.92,67.91Z"/><path class="cls-12" d="M6.24,67a.31.31,0,0,0,.3.11A1.28,1.28,0,0,0,7,66.91a1.35,1.35,0,0,0,.29-.21,1.21,1.21,0,0,0,.22-.29A1.29,1.29,0,0,0,7.64,66a.33.33,0,0,0-.1-.3.56.56,0,0,0-.15.25,1.1,1.1,0,0,1-.13.35,1,1,0,0,1-.18.23,1.11,1.11,0,0,1-.23.17,1.22,1.22,0,0,1-.36.13A.53.53,0,0,0,6.24,67Z"/><path class="cls-12" d="M7.06,66.7a.27.27,0,0,0,.28.06,1.74,1.74,0,0,0,.35-.17,2.13,2.13,0,0,0,.25-.19,1.52,1.52,0,0,0,.2-.23,1.85,1.85,0,0,0,.21-.34.29.29,0,0,0,0-.28c-.1.06-.16.09-.2.18a2.21,2.21,0,0,1-.17.29,1.11,1.11,0,0,1-.18.19,1.16,1.16,0,0,1-.21.16,1.36,1.36,0,0,1-.3.15C7.16,66.55,7.13,66.6,7.06,66.7Z"/><path class="cls-12" d="M7.86,66.37a.28.28,0,0,0,.26.12,1.36,1.36,0,0,0,.37-.13,1.16,1.16,0,0,0,.25-.18A1,1,0,0,0,9,66a1.54,1.54,0,0,0,.17-.36A.24.24,0,0,0,9,65.33a.4.4,0,0,0-.16.19.93.93,0,0,1-.13.28,1.33,1.33,0,0,1-.17.19,1.22,1.22,0,0,1-.2.14.93.93,0,0,1-.3.11C8,66.25,8,66.29,7.86,66.37Z"/><path class="cls-12" d="M8.24,66.44c0,.1.06.15.14.16a.63.63,0,0,0,.27,0,1,1,0,0,0,.2-.06A1,1,0,0,0,9,66.42a.74.74,0,0,0,.2-.2c0-.06,0-.12,0-.2s-.15,0-.18.06a.61.61,0,0,1-.14.13.6.6,0,0,1-.13.08l-.15,0H8.4C8.35,66.34,8.32,66.38,8.24,66.44Z"/><path class="cls-12" d="M8.57,66.48c0,.09,0,.14,0,.15l.23.12.23.12s.07,0,.14-.08,0-.13,0-.15l-.23-.12-.23-.11S8.63,66.42,8.57,66.48Z"/><path class="cls-12" d="M4.78,67.31c.09,0,.13,0,.15-.08L5,67.06l0-.13,0-.12.08-.16s0-.09-.06-.17-.15,0-.17,0,0,.1-.09.17a1.34,1.34,0,0,0,0,.14.76.76,0,0,0,0,.14,1.84,1.84,0,0,0-.06.18S4.71,67.25,4.78,67.31Z"/><path class="cls-12" d="M4.9,67.13a.21.21,0,0,0,.2-.08l.27-.39.28-.39c0-.06,0-.12,0-.22s-.17,0-.21.07-.29.39-.29.39-.23.33-.27.4A.22.22,0,0,0,4.9,67.13Z"/><path class="cls-3" d="M8,68.26H8a.83.83,0,0,1-.58-.3.84.84,0,0,1-.19-.61.82.82,0,0,1,.91-.77h0a.83.83,0,0,1,.57.29.82.82,0,0,1,.2.62.86.86,0,0,1-.91.77Zm.12-1.47a.64.64,0,0,0-.46.15.63.63,0,0,0-.21.43.58.58,0,0,0,.14.45A.6.6,0,0,0,8,68H8a.66.66,0,0,0,.45-.14.6.6,0,0,0,.22-.43h0A.63.63,0,0,0,8.5,67a.69.69,0,0,0-.43-.22Z"/><circle class="cls-2" cx="8.02" cy="67.42" r="0.31"/><g class="cls-7"><path class="cls-13" d="M9.92,73.56a3.3,3.3,0,0,1,.16-.72,2.68,2.68,0,0,1,.51-.86,2.51,2.51,0,0,1,1.2-.78l-.14.16a3.86,3.86,0,0,1,1-1.86,1.15,1.15,0,0,0,.31-.43c.06-.17.09-.38.15-.58a5.69,5.69,0,0,1,.47-1.1,5.47,5.47,0,0,1,1.27-1.52c.2-.16.37-.27.49-.35l.19-.12-.19.13c-.11.08-.27.21-.46.38a5.16,5.16,0,0,0-1.16,1.55,5.07,5.07,0,0,0-.4,1.09c0,.19-.07.38-.13.59a1.36,1.36,0,0,1-.32.55,3.34,3.34,0,0,0-.8,1.74l0,.12-.13,0a2.08,2.08,0,0,0-1,.69,2.21,2.21,0,0,0-.4.72,1.94,1.94,0,0,0-.1.64"/><path class="cls-13" d="M17.85,55.6l-.25.18a3.77,3.77,0,0,0-.57.57,2.8,2.8,0,0,0-.54,1,3.07,3.07,0,0,0,0,1.28,10.64,10.64,0,0,1,.13,2.52c0,.35-.07.65-.1.85s-.06.33-.06.34-.15.1-.29.07-.24-.12-.22-.19,0-.12.08-.31.1-.47.15-.8a10.27,10.27,0,0,0,.05-2.45,3.28,3.28,0,0,1,.1-1.36,2.83,2.83,0,0,1,.64-1,3.59,3.59,0,0,1,.62-.53Z"/><path class="cls-13" d="M18.46,58.18a2.23,2.23,0,0,1-.27-.65,1.26,1.26,0,0,1,0-.39,1.23,1.23,0,0,1,.23-.65l.15-.16.06,0,0,.06a.67.67,0,0,0-.09.19,1,1,0,0,0,0,.6,1.16,1.16,0,0,0,.1.28.42.42,0,0,0,.15.15"/><path class="cls-13" d="M20.85,51.91l.07-.3.19-.72a6.4,6.4,0,0,0,.2-1,2.85,2.85,0,0,0-.1-1.12,1.73,1.73,0,0,0-.66-.88,1.27,1.27,0,0,0-.94-.2A2,2,0,0,0,19,48l-.23.16L19,48a2,2,0,0,1,.64-.36,1.4,1.4,0,0,1,1,.14,1.83,1.83,0,0,1,.82.93,3.71,3.71,0,0,1,.19,1.39"/><path class="cls-13" d="M16.51,56.9c0-.1.06-.79.1-1A6.51,6.51,0,0,1,17,54.72a5.22,5.22,0,0,1,.62-1.09,2.44,2.44,0,0,1,.26-.31l.11-.11-.09.13a2.33,2.33,0,0,0-.22.33,5.24,5.24,0,0,0-.43,1.13A9.47,9.47,0,0,0,17,56.3"/><path class="cls-13" d="M73.35,33.47c0-.06.1-.16.18-.19.5-.22,1.11-.4,1.73-.6a7.93,7.93,0,0,0,1.84-.81,5.41,5.41,0,0,0,1.42-1.4,8.2,8.2,0,0,0,.82-1.57,10,10,0,0,0,.37-1.2c.07-.29.1-.46.1-.46s0,.17-.08.47a9.06,9.06,0,0,1-.31,1.22,8,8,0,0,1-.74,1.64,5.4,5.4,0,0,1-1.41,1.54,7.5,7.5,0,0,1-1.87,1c-.62.24-1.2.45-1.66.68s-.19,0-.41.22"/><path class="cls-13" d="M46.92,32.31a6.87,6.87,0,0,1,.23-.83q.08-.24.18-.51a1.8,1.8,0,0,1,.31-.57l.07-.08a.37.37,0,0,1,.14-.07.31.31,0,0,1,.19,0,.2.2,0,0,1,.08,0l.06,0a.46.46,0,0,1,.07.1l0,.06.08.12c.05.08.13.14.19.22l.22.19a2.94,2.94,0,0,0,1.08.46,4.38,4.38,0,0,0,1.06.06,3.67,3.67,0,0,0,.74-.12l.2-.07.07,0-.07,0-.19.08a3.64,3.64,0,0,1-.74.2,4.4,4.4,0,0,1-1.1,0,3,3,0,0,1-1.22-.39l-.27-.2a2.72,2.72,0,0,1-.24-.24L48,30.7l-.05-.07s0,0,0,0h0s0,0,0,0l0,0a2.2,2.2,0,0,0-.19.46,4.81,4.81,0,0,0-.12.48c-.06.31-.09.48-.11.66"/><path class="cls-13" d="M51.89,30.8l-.07,0-.21.07a2.63,2.63,0,0,1-.73.05,2.76,2.76,0,0,1-.9-.25,2.26,2.26,0,0,1-.71-.57l.4-.05a2.57,2.57,0,0,1-.52,1c-.16.19-.25.28-.26.29s-.19,0-.31-.12-.15-.26-.1-.31l.26-.23a2,2,0,0,0,.5-.74l.18-.47.22.41a1.68,1.68,0,0,0,.5.55,2.24,2.24,0,0,0,.77.35,2,2,0,0,0,.69.06l.22,0Z"/><path class="cls-13" d="M49.83,30.34l.12-.18a2.78,2.78,0,0,0,.35-.75l.09-.31.28.12c.31.14.66.46,1.18.73a8.42,8.42,0,0,0,1.81.7,12,12,0,0,0,1.73.32L56,31h0c-.13,0-.33,0-.56,0a13.15,13.15,0,0,1-1.78-.17,8.17,8.17,0,0,1-1.93-.55c-.58-.23-1-.53-1.22-.58l.38-.19a3.62,3.62,0,0,1-.39.92l-.13.21"/><path class="cls-13" d="M71.78,26.37h-.16a3.64,3.64,0,0,0-.45,0,10.49,10.49,0,0,0-1.6.23,21.29,21.29,0,0,0-2.22.64c-.8.26-1.67.56-2.58.78h0a8.64,8.64,0,0,1-2.57.52,19.58,19.58,0,0,1-2.32,0c-1.36-.08-2.29-.1-2.36-.1-.27,0-.49-.14-.49-.31s.23-.29.51-.29c.07,0,1,.06,2.37.2a19.84,19.84,0,0,0,2.27.11,8.57,8.57,0,0,0,2.49-.39h0c.89-.17,1.77-.43,2.59-.66s1.58-.43,2.25-.55a10.6,10.6,0,0,1,1.62-.16c.19,0,.34,0,.45,0Z"/><path class="cls-13" d="M65.52,33.68a15,15,0,0,1-2-1c-.51-.32-1-.62-1.4-.86a10.91,10.91,0,0,0-1-.54l-.4-.18.41.16a11.32,11.32,0,0,1,1.06.48l1.45.77a10.53,10.53,0,0,0,1.71.75,7.68,7.68,0,0,0,1.82.34c.3,0,.67.18,1,.22"/><path class="cls-13" d="M63.93,28.25h-.19a5,5,0,0,0-.53,0,16.57,16.57,0,0,0-1.9.05,25.12,25.12,0,0,1-2.7.09c-1,0-2,0-3.09.08a4.23,4.23,0,0,0-.74.13.37.37,0,0,0-.14.06s-.1.08-.16.11a3.7,3.7,0,0,0-.29.24l-.07.07s0,0,0,.07,0,0,0,.06a.58.58,0,0,0,.09.27,2,2,0,0,0,.5.45,10.74,10.74,0,0,0,2.41,1.19,19.42,19.42,0,0,0,1.87.57l.79.19c.32.08.55.26.51.43s-.33.23-.65.15c0,0-.33-.08-.8-.22a18.88,18.88,0,0,1-1.9-.65,11.45,11.45,0,0,1-2.46-1.32,2.21,2.21,0,0,1-.59-.59.9.9,0,0,1-.14-.47.5.5,0,0,1,0-.12.35.35,0,0,1,0-.13.46.46,0,0,1,.18-.22l.32-.24.17-.12a1.36,1.36,0,0,1,.23-.09,4,4,0,0,1,.82-.12c1.07-.06,2.12,0,3.11,0s1.9,0,2.69,0a16.68,16.68,0,0,1,1.91,0l.53.06Z"/></g><path class="cls-4" d="M55.53,70.23l1.53-1,.38-.25.41-.3.92-.66.5-.36.52-.41,1.11-.89a46.51,46.51,0,0,0,4.82-4.76,46.71,46.71,0,0,0,4.58-6.28,50.08,50.08,0,0,0,3.52-7A55,55,0,0,0,76,41.87,49.56,49.56,0,0,0,77.4,35c.11-.8.39-1.43.66-1.41s.44.72.33,1.54a48.36,48.36,0,0,1-1.55,7,56.86,56.86,0,0,1-2.39,6.54,51.09,51.09,0,0,1-3.73,7A46.68,46.68,0,0,1,66,61.83a47.26,47.26,0,0,1-5,4.67l-1.14.86-.53.4-.51.36-.93.64-.42.28-.39.24Z"/><path class="cls-4" d="M45.48,28.59l-1.3,0c-.41,0-.91.08-1.49.13l-.91.15-.49.08-.51.11a21.41,21.41,0,0,0-4.57,1.57,25.79,25.79,0,0,0-4.71,2.92,32.71,32.71,0,0,0-4.08,3.76,42.23,42.23,0,0,0-3.05,3.79c-.82,1.17-1.45,2.19-1.88,2.92s-.65,1.17-.67,1.21a.56.56,0,0,1-.72.24.53.53,0,0,1-.2-.74s.27-.49.74-1.23,1.14-1.76,2-2.92a41.94,41.94,0,0,1,3.25-3.76,32.1,32.1,0,0,1,4.28-3.69,25.86,25.86,0,0,1,4.88-2.8,21.59,21.59,0,0,1,4.68-1.43l.52-.1.49-.06.92-.12c.58,0,1.08-.07,1.5-.08Z"/><path class="cls-4" d="M13,77.59l.08-.11c0-.07.13-.18.24-.31a10.65,10.65,0,0,1,.95-1,11.86,11.86,0,0,1,1.55-1.27,14.22,14.22,0,0,1,2-1.16,19.3,19.3,0,0,1,4.12-1.4A12.08,12.08,0,0,1,23.37,72,5.79,5.79,0,0,1,24,72c.25,0,.44.06.44.12s-.2.08-.44.08c0,0-.25,0-.61,0a11.07,11.07,0,0,0-1.43.23,19.33,19.33,0,0,0-4.12,1.33,14.78,14.78,0,0,0-2,1.12,13.5,13.5,0,0,0-1.56,1.24,12.65,12.65,0,0,0-1,1l-.25.31Z"/><path class="cls-4" d="M21.72,76.91l.21-.29c.07-.09.15-.2.26-.32s.21-.27.34-.41a9.89,9.89,0,0,1,2.22-1.83,10.2,10.2,0,0,1,2.68-1.15,9.22,9.22,0,0,1,1.38-.26c.16,0,.29,0,.3.07s-.13.11-.28.13a10.31,10.31,0,0,0-1.36.22,10,10,0,0,0-2.67,1.08,9.6,9.6,0,0,0-2.24,1.76c-.14.14-.26.28-.36.4a3.06,3.06,0,0,0-.26.32Z"/><path class="cls-4" d="M17.68,70.37s.33.15.83.35a15.05,15.05,0,0,0,1.9.58,16,16,0,0,0,2,.34c.54,0,.92.06.95.07s.2.05.2.11-.1.09-.21.08-.41,0-1-.1a15.09,15.09,0,0,1-2-.4,15.6,15.6,0,0,1-1.88-.65C18,70.54,17.68,70.37,17.68,70.37Z"/><path class="cls-4" d="M23.21,69.55l.08.16a3.47,3.47,0,0,0,.24.4,4.52,4.52,0,0,0,1,1,4.58,4.58,0,0,0,1.25.63,3.14,3.14,0,0,0,.66.13c.07,0,.13.07.12.12s-.07.09-.15.08a3.53,3.53,0,0,1-.68-.17,4.49,4.49,0,0,1-1.26-.71,4.23,4.23,0,0,1-.93-1.07,2.44,2.44,0,0,1-.22-.41Z"/><path class="cls-4" d="M24.67,74.06a11,11,0,0,1,1.13-.61c.29-.14.59-.26.83-.35L27,73a.11.11,0,0,1,.12.07.1.1,0,0,1-.06.12l-.41.11c-.24.07-.54.17-.84.28A11,11,0,0,0,24.67,74.06Z"/><path class="cls-4" d="M27.93,72.82a2.49,2.49,0,0,0-.55.15l-.36.16-.16.09s-.05,0-.08-.07,0-.09,0-.1A.75.75,0,0,1,27,73a2.66,2.66,0,0,1,.39-.11A2.78,2.78,0,0,1,27.93,72.82Z"/><path class="cls-4" d="M11.3,62a.86.86,0,0,1,0,.15,1.16,1.16,0,0,1-.12.36,3,3,0,0,1-.32.46c-.14.15-.3.29-.46.44a4.57,4.57,0,0,0-.44.44,1.73,1.73,0,0,0-.28.45,1,1,0,0,0-.07.51.13.13,0,0,1-.08.13c-.06,0-.12,0-.12-.11a1.23,1.23,0,0,1,.12-.6,1.69,1.69,0,0,1,.33-.47,3.8,3.8,0,0,1,.47-.43,3.2,3.2,0,0,0,.82-.83,1.19,1.19,0,0,0,.14-.36Z"/><path class="cls-4" d="M9.09,61.93A.47.47,0,0,1,9,62.1a1.2,1.2,0,0,1-.26.37c-.27.29-.78.47-1.1.86a2.22,2.22,0,0,0-.54,1.25,2,2,0,0,0,0,.64c0,.08,0,.15-.07.16s-.11,0-.13-.12a2.34,2.34,0,0,1,0-.71,2.44,2.44,0,0,1,.63-1.29,2.82,2.82,0,0,1,.61-.45,3,3,0,0,0,.54-.36A1.09,1.09,0,0,0,9,62.09.87.87,0,0,0,9.09,61.93Z"/><path class="cls-4" d="M12.5,69.42l.14-.58h0c0,.07,0,.08,0,0s0,0,0,0l0,0-.07,0-.22.1a7.19,7.19,0,0,1-1.89.51v0s0,0,0,0h0s0,0,0,0h0l.42-.25v0a9.46,9.46,0,0,1-1.12.11,11.57,11.57,0,0,1-2.64-.18l-.17,0,.16-.06.74-.3v.11l-3-.35-.74-.08.74-.09a2.59,2.59,0,0,0,.83-.22l0,.17a11.81,11.81,0,0,0-2.14,0l-.58.08-.21,0a.27.27,0,0,1-.12,0,.15.15,0,0,1-.09-.11.1.1,0,0,1,.08-.11.11.11,0,0,1,.08,0s0,0,0,.06h0s0,0,0,0,0,0,0,0h0l0,0h.06l.19,0,.59-.07a12.49,12.49,0,0,1,2.17,0l.4,0-.36.15a2.68,2.68,0,0,1-.9.23v-.17l3,.41.22,0-.21.08-.75.28v-.1a11.16,11.16,0,0,0,2.63.22c.71,0,1.16-.09,1.12-.08v0l-.42.24h0s0,0,0,0h0s0,0,0,0v0a7.41,7.41,0,0,0,1.89-.5l.21-.09.08,0h0v0c0,.06,0,0,0,0h0Z"/><path class="cls-4" d="M1,69.08H.93A1.82,1.82,0,0,1,.51,69h0s.32-.15.78-.36l0,.08-.7,0-.6,0,.59-.17,1.19-.36a.11.11,0,0,1,.14.07.1.1,0,0,1-.09.12l-1.21.3v-.14h.86l-.16.06c-.47.18-.85.33-.8.3h0a1.39,1.39,0,0,0,.42.06Z"/><path class="cls-4" d="M4.23,74.12H4.12a2,2,0,0,0-.42,0v0l.24.1a1.37,1.37,0,0,0,.51.08l.24,0-.21.12a.9.9,0,0,0-.28.27l-.07-.12.75,0a.1.1,0,0,1,.09.1.09.09,0,0,1-.09.1H4l.09-.12a1.07,1.07,0,0,1,.36-.28l0,.1a1.26,1.26,0,0,1-.54-.12.58.58,0,0,1-.22-.14v0h0a1.66,1.66,0,0,1,.42,0Z"/><path class="cls-4" d="M10.06,72.79l-.11.1a3.58,3.58,0,0,1-.65.42h0c.11,0,.09,0,0,0s.25,0,.44-.06h0c-.09,0-.1,0-.08,0h.08s0,0,0,0h0l-.12.09a4.55,4.55,0,0,1-1,.52v0c0,.06,0,0,0,0h0v0h0l0,0a1.09,1.09,0,0,0,.48.14v0c0-.09,0,0,0,0h0s0,.09,0,0h0l0,0-.24.17a2,2,0,0,1-.95.3l0-.08.06,0,.15.08.46.23.13.08-.15,0a3.29,3.29,0,0,1-.74,0,3.56,3.56,0,0,1-.85-.17l.07-.13a3,3,0,0,1,.52.42l.13.13H7.59a3.45,3.45,0,0,1-.93-.11A2.74,2.74,0,0,1,6.21,75l.09-.17a1.07,1.07,0,0,1,.27.28.8.8,0,0,1,.08.12l.11.2-.23-.06a8.66,8.66,0,0,1-.88-.29c-.18-.07-.31-.17-.29-.22s.18,0,.36,0a8.1,8.1,0,0,0,.86.28l-.11.14a.41.41,0,0,0-.06-.1A.85.85,0,0,0,6.19,75l-.66-.49.75.32a2.22,2.22,0,0,0,.43.15,3,3,0,0,0,.88.11l-.06.14a2.25,2.25,0,0,0-.48-.4l-.57-.37.63.24a3.16,3.16,0,0,0,.81.17,3.24,3.24,0,0,0,.71,0v.1l-.45-.25L8,74.6l-.06,0,0-.07H8a2,2,0,0,0,.92-.27l.23-.16,0,0h0s0,0,0,0h0s0,0,0,0l0,0a1,1,0,0,1-.5-.16l0,0h0v0h0s0,0,0,0h0s0,0,0,0v0a4.73,4.73,0,0,0,1-.51l.12-.08h0s0,0,0,0H9.66s0,0,.07,0h0a3.85,3.85,0,0,1-.44,0c.08,0,.09,0,0,0h0a3.82,3.82,0,0,0,.66-.42Z"/><path class="cls-4" d="M14.12,66.07l.53-.75h0c-.06.07-.07.1-.07.09l0,0,0,0v0s0,0,0,0a.92.92,0,0,1-.87.06h0c.07,0,.09,0,.09,0l-.08,0s0,0,0,0h0v0l0,0,.07-.09.19-.24h0c-.07.06-.08.1-.08.08l0,0,0,0h0s0,0,0,0H14l-1-.06v0s0,0,0,0h0s0,0,0,0h0v0l0,0,.54-.63,0,0a8.16,8.16,0,0,0-2,.8l-.08,0V65s0-.14.09-.32l.2-.65.08,0a10.21,10.21,0,0,0-.94.93,3,3,0,0,0-.66,1.18l-.12.5,0-.52a3.3,3.3,0,0,0-.17-.87h.16a4.91,4.91,0,0,0-.43,1.49,4.29,4.29,0,0,0,0,1,4.9,4.9,0,0,0,.13.76c.07.26.11.48.05.5s-.17-.18-.24-.45a4,4,0,0,1-.13-.79A4.92,4.92,0,0,1,10,65.24L10,65l.06.21a3.19,3.19,0,0,1,.17.91h-.16a3.15,3.15,0,0,1,.7-1.22,10.2,10.2,0,0,1,1-.93l.14-.12,0,.18-.21.65-.09.31-.07,0a7.15,7.15,0,0,1,2.08-.76l0,0-.55.62,0,0,0,0h0s0,0,0,0h0s0,0,0,0v0L14,65h.08l0,0,0,0s0,0,.06-.1h0l-.32.39c.1,0,.12,0,0,0h0a.82.82,0,0,0,.52.07.78.78,0,0,0,.34-.13h0l0,0,0,0,0,0s0,0,.07-.09h0Z"/><path class="cls-3" d="M10.7,67.62a.94.94,0,0,1,0-.19,1.71,1.71,0,0,1,.13-.49,1.72,1.72,0,0,1,1.14-1,1.79,1.79,0,0,1,.86,0,1.47,1.47,0,0,1,.68.35,1.2,1.2,0,0,1,.32.46,1.25,1.25,0,0,1,.07.23c0,.1-.05.18-.1.17s-.09-.07-.1-.14a1.21,1.21,0,0,0,0-.19,1,1,0,0,0-.27-.41,1.39,1.39,0,0,0-.6-.34,1.65,1.65,0,0,0-1.51.34,1.72,1.72,0,0,0-.43.57,2.17,2.17,0,0,0-.14.48C10.7,67.55,10.7,67.62,10.7,67.62Z"/><path class="cls-3" d="M9.21,70.37l0,.06L9,70.61a3.49,3.49,0,0,1-.58.56,15.56,15.56,0,0,1-2.13,1.2l-.3.15-.15.07s-.09.08-.2,0a.13.13,0,0,1-.07-.14.19.19,0,0,1,0-.09l.07-.15A2.54,2.54,0,0,1,5.87,72a4.75,4.75,0,0,1,.72-.93,4.42,4.42,0,0,1,.64-.55l.2-.15.11-.06a.26.26,0,0,1,.23,0c.06,0,.06.1,0,.11s-.06,0-.08,0l-.11,0-.08,0-.2.13a5.46,5.46,0,0,0-.63.52,4.74,4.74,0,0,0-.73.88l-.16.27-.07.14a.15.15,0,0,0,0,.06s0,0,0,0h0a.29.29,0,0,0,.11,0L6,72.42l.3-.14a14.2,14.2,0,0,0,2.16-1.14,3.82,3.82,0,0,0,.6-.53l.14-.18Z"/><path class="cls-3" d="M6.69,71.54a4.88,4.88,0,0,1,.65-.7,5.12,5.12,0,0,1,.53-.41,1,1,0,0,1,.21-.13.28.28,0,0,1,.14,0,.07.07,0,0,1,.07.06s0,0,0,.07l-.06,0h0v0a2.63,2.63,0,0,0-.79.44A4.8,4.8,0,0,0,6.69,71.54Z"/><path class="cls-4" d="M16.17,66.32l.11.12a1.44,1.44,0,0,1,.18.33,1.24,1.24,0,0,1,.06.37,1,1,0,0,1,0,.19s-.05,0-.11,0-.09,0-.08-.06,0-.06,0-.15a1,1,0,0,0,0-.34,1.29,1.29,0,0,0-.1-.33A1.1,1.1,0,0,0,16.17,66.32Z"/><path class="cls-4" d="M14.31,70a10.39,10.39,0,0,1,.33-1.37c.11-.34.24-.67.35-.92s.2-.41.21-.42a.1.1,0,0,1,.14,0,.11.11,0,0,1,0,.13,3.71,3.71,0,0,0-.23.41,7.33,7.33,0,0,0-.42.88A10.69,10.69,0,0,0,14.31,70Z"/><path class="cls-4" d="M13.15,69.87s.2.9.2.91,0,0-.1,0-.1,0-.1,0Z"/><path class="cls-4" d="M12.05,71.71a.17.17,0,0,0,0,.08.07.07,0,0,0,0,0l-.09,0c-.06,0-.1,0-.1,0a.22.22,0,0,1,.05-.11A.17.17,0,0,1,12.05,71.71Z"/><path class="cls-4" d="M17.39,67.87a1.13,1.13,0,0,1,.17.36,1.77,1.77,0,0,1,.05.29v.14s-.05,0-.1,0-.1,0-.1,0a.58.58,0,0,0,0-.12,1,1,0,0,0,0-.26A1.26,1.26,0,0,0,17.39,67.87Z"/><path class="cls-4" d="M55.6,29.07a.25.25,0,0,1,0,.11.23.23,0,0,1-.22.21.37.37,0,0,1-.15-.72.44.44,0,0,1,.3,0,1,1,0,0,1,.24.14.48.48,0,0,1,.21.47.61.61,0,0,1-.18.34l-.1.1a.11.11,0,0,1-.15,0,.11.11,0,0,1,0-.14s0,0,.1-.09a.51.51,0,0,0,.15-.23.35.35,0,0,0-.14-.34.46.46,0,0,0-.42-.15.3.3,0,0,0-.2.36.34.34,0,0,0,.32.24.18.18,0,0,0,.17-.29Z"/><path class="cls-4" d="M74.38,30.37,74,30.5l-.44.15-.58.17a20.55,20.55,0,0,1-3.18.6,19.45,19.45,0,0,1-3.28.07A14.23,14.23,0,0,1,65,31.33c-.18,0-.32-.1-.31-.15s.16-.07.34-.05.65.12,1.55.2a19.72,19.72,0,0,0,3.26,0A20.34,20.34,0,0,0,73,30.79l.58-.16L74,30.5Z"/><path class="cls-4" d="M54.67,31.13s-.64,0-1.28-.1c-.33,0-.65-.07-.89-.11l-.43-.07a.1.1,0,0,1-.07-.12.1.1,0,0,1,.11-.08l.42.1c.24.06.55.13.87.18C54,31.05,54.67,31.13,54.67,31.13Z"/><path class="cls-4" d="M55.79,31.75s-.87,0-1.76-.08l-1.21-.16-.58-.11a.11.11,0,0,1-.1-.12.1.1,0,0,1,.14-.07l.57.13c.33.08.76.16,1.2.23C54.92,31.71,55.79,31.75,55.79,31.75Z"/></g></g></svg>