<svg xmlns="http://www.w3.org/2000/svg" xmlns:xlink="http://www.w3.org/1999/xlink" viewBox="0 0 1921.46 236.19"><defs><style>.cls-1{fill:url(#linear-gradient);}.cls-2{fill:url(#linear-gradient-2);}.cls-3{fill:url(#linear-gradient-3);}.cls-4{fill:url(#linear-gradient-4);}.cls-5{fill:#ff3800;}.cls-6{fill:#ff3e00;}.cls-7{fill:#ff4200;}</style><linearGradient id="linear-gradient" x1="960.73" y1="136.9" x2="960.73" y2="1.98" gradientUnits="userSpaceOnUse"><stop offset="0" stop-color="#003"/><stop offset="1" stop-color="#603"/></linearGradient><linearGradient id="linear-gradient-2" x1="960.73" y1="146.32" x2="960.73" y2="188.35" xlink:href="#linear-gradient"/><linearGradient id="linear-gradient-3" x1="718.43" y1="162.25" x2="718.43" y2="230.28" gradientTransform="translate(242.3)" gradientUnits="userSpaceOnUse"><stop offset="0" stop-color="#f30"/><stop offset="1" stop-color="#f90"/></linearGradient><linearGradient id="linear-gradient-4" x1="-707.35" y1="195.88" x2="1214.11" y2="195.88" gradientTransform="matrix(-1, 0, 0, 1, 1214.11, 0)" gradientUnits="userSpaceOnUse"><stop offset="0" stop-color="#f30"/><stop offset="1" stop-color="#ff4000"/></linearGradient></defs><g id="Layer_2" data-name="Layer 2"><g id="Layer_1-2" data-name="Layer 1"><rect class="cls-1" width="1921.46" height="142.68"/><rect class="cls-2" y="141.68" width="1921.46" height="48.83"/><path class="cls-3" d="M0,204.44s86.33,30.18,190,10.84c93.92-17.51,207.15-29.19,289.54-12.55,120.78,24.4,215.33,35.11,292.64,25,72.62-9.5,128.47,6.47,188.72,6.47s116.1-16,188.73-6.47c77.31,10.12,171.86-.59,292.64-25,82.39-16.64,195.62-5,289.54,12.55,103.68,19.34,189.64-10.84,189.64-10.84V159.18s-113.92,25.43-275.27,8c-98.23-10.61-218-14.71-342.53,0-68.8,8.12-148.67,21.37-232.32,7-45.38-7.8-70.52-15-110.43-15s-65,7.2-110.42,15c-83.65,14.37-163.52,1.12-232.32-7-124.49-14.71-244.31-10.61-342.53,0C114.28,184.61,0,159.18,0,159.18"/><path class="cls-4" d="M960.91,236.19c-22.79,0-44.52-2.23-67.52-4.59-37.31-3.83-75.9-7.79-120.94-1.9-71.12,9.31-161.58,1.6-293.3-25-92.48-18.68-220.63-.15-288.78,12.56C87.36,236.46.87,206.63,0,206.33v-3.78c.86.3,87.72,29.77,189.64,10.77,83.6-15.59,201.82-30.42,290.3-12.55,131.27,26.51,221.32,34.21,292,25,45.51-6,84.33-2,121.87,1.88,22.9,2.35,44.53,4.57,67.11,4.57s44.22-2.22,67.12-4.57c37.54-3.85,76.36-7.84,121.87-1.88,70.67,9.24,160.72,1.54,292-25,88.48-17.87,206.71-3,290.31,12.55,95,17.71,177.93-6.68,189.27-10.33V161.63c-12.6,2.52-74.64,13.6-162.64,13.6A1052.74,1052.74,0,0,1,1646,169.16c-118.56-12.8-233.65-12.8-342.08,0-8.08,1-16.16,2-24.71,3-62.85,7.82-134.08,16.69-208.18,4-11.11-1.91-20.81-3.75-30.19-5.52-27.9-5.28-49.93-9.45-79.9-9.45s-52,4.17-79.89,9.45c-9.39,1.77-19.09,3.61-30.2,5.52-74.1,12.73-145.33,3.86-208.17-4-8.55-1.07-16.63-2.07-24.72-3-108.42-12.81-223.52-12.8-342.08,0C116,186.43,1.15,161.38,0,161.13v-3.91c1.14.26,116.29,25.16,275.42,8,118.86-12.84,234.26-12.84,343,0,8.1,1,16.19,2,24.74,3,62.57,7.79,133.49,16.62,207,4,11.07-1.9,20.76-3.73,30.12-5.5,28.11-5.32,50.3-9.52,80.64-9.52s52.54,4.2,80.64,9.52c9.37,1.77,19,3.6,30.13,5.5,73.52,12.64,144.44,3.81,207-4,8.56-1.07,16.65-2.07,24.74-3,108.73-12.84,224.13-12.84,343,0,159.14,17.19,273.92-7.71,275.06-8v49.11c-.87.3-87,30.13-190,10.92-68.16-12.71-196.3-31.24-288.79-12.56C1311,231.3,1220.5,239,1149.38,229.7c-45.05-5.89-83.63-1.93-120.94,1.9C1005.43,234,983.7,236.19,960.91,236.19Z"/><path class="cls-5" d="M832.59,176.9c-9.16,1.24-13.74-10.93-16.88-24.58,1.57,14.72-.89,26.21-9.63,27.13l12.54.42Z"/><path class="cls-5" d="M749.76,180.16c-7.17.26-9.86-6.74-11.24-17.54.08,11.51-3.45,16.4-10.28,16.44L739,181.67Z"/><path class="cls-6" d="M213.75,172c-9.16,1.23-12.22-5.23-12.42-21.1C199,165.1,194.79,172.1,186.05,173l12.53,1.47Z"/><path class="cls-5" d="M112.39,172.07c-7.45.11-10.33-5.87-8.84-16.88-2.41,11.9-6.57,15.62-13.66,15.52L100,173.27Z"/><path class="cls-7" d="M384.25,168.39a294.43,294.43,0,0,1,39.07,3.09c6.48,1,12.94,2.13,19.34,3.6,3.21.71,6.4,1.54,9.58,2.41s6.32,1.88,9.44,3,6.22,2.3,9.27,3.61c1.53.69,3,1.36,4.58,2.1s3,1.52,4.45,2.32c5.76,3.24,11.29,6.57,17,9.55,2.84,1.48,5.69,2.94,8.57,4.3s5.81,2.6,8.76,3.76a126.17,126.17,0,0,0,18.11,5.48,117.44,117.44,0,0,0,37.6,2c12.66-1.2,25.19-4,37.68-7.38s25-7.29,37.84-10.15c1.6-.38,3.22-.69,4.83-1s3.24-.61,4.88-.84c3.26-.54,6.55-.91,9.84-1.18a90.86,90.86,0,0,1,9.9-.11,68.94,68.94,0,0,1,9.76,1.28,83.2,83.2,0,0,0-9.74.11,90.64,90.64,0,0,0-9.6,1.25,157.92,157.92,0,0,0-18.75,4.76c-12.33,3.87-24.51,8.5-37,12.48a201.33,201.33,0,0,1-38.77,8.68,116.22,116.22,0,0,1-40.15-2.26c-3.29-.76-6.52-1.71-9.72-2.75s-6.32-2.29-9.41-3.6a147.38,147.38,0,0,1-17.79-9.1c-5.68-3.39-11.14-7.1-16.56-10.57q-2-1.32-4.05-2.52c-1.32-.8-2.79-1.48-4.2-2.2-2.89-1.37-5.81-2.67-8.81-3.83A223.33,223.33,0,0,0,422.88,174q-9.56-2-19.22-3.34C397.22,169.75,390.75,169,384.25,168.39Z"/><path class="cls-7" d="M946,234.61a422.28,422.28,0,0,1-54.29-1.1q-13.55-1.14-27-3c-9-1.28-17.92-2.82-26.82-4.55q-6.66-1.32-13.29-2.77c-4.42-1-8.83-2-13.22-3-8.78-2.08-17.52-4.27-26.23-6.29a219.85,219.85,0,0,0-26.28-4.75,98.76,98.76,0,0,0-26.73.54,75.86,75.86,0,0,1,13.22-3.39,95,95,0,0,1,13.7-1.08c4.6,0,9.17.31,13.73.71,2.27.22,4.55.48,6.8.8s4.51.64,6.76,1c9,1.44,17.83,3.26,26.66,5l13.22,2.7q6.6,1.37,13.21,2.65,13.2,2.61,26.44,4.92c8.84,1.52,17.7,2.93,26.57,4.29C910.19,230,928,232.17,946,234.61Z"/><path class="cls-7" d="M344.14,179.87c-11.53.47-23,1.17-34.33,2.64a302.33,302.33,0,0,0-33.64,6.1q-16.59,4.08-32.86,9.49l-32.68,11q-8.24,2.68-16.59,5.15l-8.41,2.31c-2.83.69-5.64,1.45-8.48,2.08a249.69,249.69,0,0,1-34.49,5.53,247.07,247.07,0,0,1-34.83.67,285.12,285.12,0,0,1-34.43-4c11.54.29,23,.53,34.46.1l8.57-.37,8.54-.65c2.84-.24,5.67-.58,8.5-.85,1.42-.12,2.83-.3,4.24-.5l4.23-.58a316.14,316.14,0,0,0,33.42-6.69l8.24-2.2,8.2-2.4q8.19-2.47,16.35-5.17c10.9-3.54,21.8-7.27,32.9-10.6a321.66,321.66,0,0,1,33.82-8.36l4.29-.79,4.31-.67,4.32-.65,4.33-.49,4.34-.47,4.34-.34,4.34-.33,4.35-.18A238.29,238.29,0,0,1,344.14,179.87Z"/><path class="cls-5" d="M1090.44,176.9c9.15,1.24,13.73-10.93,16.87-24.58-1.56,14.72.9,26.21,9.63,27.13l-12.53.42Z"/><path class="cls-5" d="M1173.27,180.16c7.17.26,9.85-6.74,11.24-17.54-.08,11.51,3.45,16.4,10.28,16.44L1184,181.67Z"/><path class="cls-5" d="M1709.28,172c9.15,1.23,12.22-5.23,12.41-21.1,2.37,14.17,6.55,21.17,15.29,22.08l-12.53,1.47Z"/><path class="cls-5" d="M1810.64,172.07c7.45.11,10.33-5.87,8.84-16.88,2.41,11.9,6.57,15.62,13.65,15.52L1823,173.27Z"/><path class="cls-7" d="M1538.78,168.39c-6.5.56-13,1.36-19.41,2.29s-12.86,2-19.22,3.34a223.33,223.33,0,0,0-37.26,10.61c-3,1.16-5.93,2.46-8.81,3.83-1.41.72-2.88,1.4-4.2,2.2s-2.71,1.64-4.05,2.52c-5.42,3.47-10.88,7.18-16.56,10.57a147.38,147.38,0,0,1-17.79,9.1q-4.63,2-9.41,3.6c-3.2,1-6.43,2-9.72,2.75a116.24,116.24,0,0,1-40.15,2.26,201.26,201.26,0,0,1-38.78-8.68c-12.53-4-24.71-8.61-37.05-12.48a158.26,158.26,0,0,0-18.74-4.76,90.64,90.64,0,0,0-9.6-1.25,83.38,83.38,0,0,0-9.75-.11,69.13,69.13,0,0,1,9.76-1.28,91,91,0,0,1,9.91.11c3.29.27,6.58.64,9.84,1.18,1.63.23,3.25.56,4.88.84s3.23.66,4.83,1c12.87,2.86,25.32,6.87,37.84,10.15s25,6.18,37.67,7.38a117.41,117.41,0,0,0,37.6-2,126.29,126.29,0,0,0,18.12-5.48q4.43-1.74,8.76-3.76c2.88-1.36,5.72-2.82,8.57-4.3,5.7-3,11.22-6.31,17-9.55,1.44-.8,2.93-1.57,4.45-2.32s3-1.41,4.57-2.1c3.06-1.31,6.15-2.54,9.28-3.61s6.28-2.06,9.44-3,6.37-1.7,9.57-2.41c6.41-1.47,12.87-2.63,19.35-3.6A294.43,294.43,0,0,1,1538.78,168.39Z"/><path class="cls-7" d="M977,234.61c18-2.44,35.8-4.64,53.56-7.32,8.88-1.36,17.74-2.77,26.57-4.29s17.65-3.18,26.45-4.92q6.62-1.28,13.21-2.65l13.22-2.7c8.83-1.79,17.68-3.61,26.66-5,2.25-.36,4.49-.71,6.76-1s4.52-.58,6.8-.8c4.56-.4,9.13-.74,13.72-.71a95,95,0,0,1,13.71,1.08,76.09,76.09,0,0,1,13.22,3.39,98.78,98.78,0,0,0-26.73-.54,219.85,219.85,0,0,0-26.28,4.75c-8.72,2-17.45,4.21-26.23,6.29-4.39,1-8.8,2-13.22,3s-8.85,1.89-13.3,2.77c-8.89,1.73-17.83,3.27-26.81,4.55s-18,2.27-27,3A422.28,422.28,0,0,1,977,234.61Z"/><path class="cls-7" d="M1578.88,179.87a238.47,238.47,0,0,1,34.66-1.26l4.35.18,4.34.33,4.34.34,4.34.47,4.33.49,4.31.65,4.32.67,4.29.79a322.28,322.28,0,0,1,33.82,8.36c11.09,3.33,22,7.06,32.9,10.6q8.16,2.7,16.35,5.17l8.2,2.4,8.24,2.2a316.14,316.14,0,0,0,33.42,6.69l4.22.58c1.41.2,2.83.38,4.24.5,2.84.27,5.67.61,8.51.85l8.54.65,8.56.37c11.45.43,22.93.19,34.47-.1a285.12,285.12,0,0,1-34.43,4,247.07,247.07,0,0,1-34.83-.67,249.69,249.69,0,0,1-34.49-5.53c-2.85-.63-5.66-1.39-8.48-2.08l-8.41-2.31q-8.34-2.46-16.59-5.15l-32.69-11q-16.26-5.44-32.85-9.49a302.33,302.33,0,0,0-33.64-6.1C1601.88,181,1590.42,180.34,1578.88,179.87Z"/></g></g></svg>