<svg xmlns="http://www.w3.org/2000/svg" xmlns:xlink="http://www.w3.org/1999/xlink" viewBox="0 0 1921.77 94.51"><defs><style>.cls-1{fill:url(#linear-gradient);}.cls-2{fill:url(#linear-gradient-2);}.cls-3{fill:url(#linear-gradient-3);}.cls-4{fill:#ff3800;}.cls-5{fill:#ff3e00;}.cls-6{fill:#ff4200;}</style><linearGradient id="linear-gradient" x1="960.89" y1="4.64" x2="960.89" y2="46.67" gradientUnits="userSpaceOnUse"><stop offset="0" stop-color="#003"/><stop offset="1" stop-color="#603"/></linearGradient><linearGradient id="linear-gradient-2" x1="718.58" y1="20.58" x2="718.58" y2="88.6" gradientTransform="translate(242.3)" gradientUnits="userSpaceOnUse"><stop offset="0" stop-color="#f30"/><stop offset="1" stop-color="#f90"/></linearGradient><linearGradient id="linear-gradient-3" x1="-734.97" y1="54.2" x2="1186.8" y2="54.2" gradientTransform="matrix(-1, 0, 0, 1, 1186.8, 0)" gradientUnits="userSpaceOnUse"><stop offset="0" stop-color="#f30"/><stop offset="1" stop-color="#ff4000"/></linearGradient></defs><g id="Layer_2" data-name="Layer 2"><g id="Layer_1-2" data-name="Layer 1"><rect class="cls-1" width="1921.77" height="48.83"/><path class="cls-2" d="M0,62.76S86.5,92.94,190.18,73.61c93.93-17.52,207.15-29.2,289.54-12.56,120.79,24.4,215.34,35.11,292.65,25,72.62-9.5,128.47,6.47,188.72,6.47s116.1-16,188.73-6.47c77.3,10.12,171.86-.59,292.64-25,82.39-16.64,195.61-5,289.54,12.56,103.68,19.33,189.77-10.85,189.77-10.85V17.5s-114,25.43-275.4,8c-98.23-10.61-218-14.7-342.53,0-68.8,8.12-148.67,21.37-232.32,7-45.39-7.8-70.52-15-110.43-15s-65,7.2-110.43,15c-83.65,14.37-163.52,1.12-232.31-7C493.86,10.8,374,14.89,275.82,25.5,114.46,42.93,0,17.5,0,17.5"/><path class="cls-3" d="M961.09,94.51c-22.79,0-44.52-2.23-67.52-4.59-37.32-3.83-75.9-7.79-121-1.89-71.12,9.3-161.57,1.59-293.29-25-92.48-18.68-220.63-.15-288.78,12.56C87.54,94.78.87,65,0,64.65V60.87c.86.3,87.89,29.77,189.82,10.77,83.59-15.59,201.82-30.42,290.3-12.55,131.27,26.52,221.32,34.21,292,25,45.51-6,84.32-2,121.86,1.88,22.91,2.35,44.54,4.57,67.12,4.57s44.22-2.22,67.12-4.57c37.54-3.85,76.36-7.83,121.87-1.88,70.66,9.25,160.71,1.55,292-25,88.48-17.87,206.71-3,290.3,12.55,95,17.71,178.07-6.68,189.41-10.32V20c-12.6,2.52-74.77,13.6-162.77,13.6a1052.43,1052.43,0,0,1-112.85-6.06c-118.56-12.81-233.65-12.81-342.08,0-8.09,1-16.16,2-24.71,3-62.85,7.83-134.08,16.69-208.18,4-11.11-1.91-20.81-3.75-30.19-5.52-27.9-5.28-49.93-9.45-79.9-9.45s-52,4.17-79.9,9.45c-9.38,1.77-19.08,3.61-30.19,5.52-74.1,12.73-145.33,3.87-208.17-4-8.55-1.06-16.63-2.07-24.72-3-108.43-12.8-223.52-12.8-342.08,0C116.2,44.75,1.15,19.71,0,19.45v-3.9c1.14.25,116.47,25.15,275.6,8,118.86-12.84,234.26-12.84,343,0,8.1,1,16.18,2,24.74,3,62.57,7.79,133.49,16.62,207,4,11.08-1.91,20.76-3.74,30.13-5.51,28.1-5.32,50.3-9.52,80.64-9.52s52.54,4.2,80.64,9.52c9.37,1.77,19,3.6,30.13,5.51,73.51,12.63,144.43,3.8,207-4,8.56-1.07,16.64-2.07,24.74-3,108.73-12.84,224.12-12.84,343,0,159.13,17.19,274.05-7.71,275.19-8v49.1c-.87.3-87.13,30.13-190.14,10.92C1663.48,62.86,1535.34,44.33,1442.85,63c-131.71,26.61-222.17,34.32-293.29,25-45-5.9-83.63-1.94-121,1.89C1005.61,92.28,983.88,94.51,961.09,94.51Z"/><path class="cls-4" d="M832.77,35.23C823.61,36.46,819,24.3,815.89,10.64c1.56,14.73-.89,26.21-9.63,27.13l12.53.43Z"/><path class="cls-4" d="M749.94,38.48c-7.18.26-9.86-6.74-11.24-17.54.08,11.51-3.46,16.4-10.28,16.44L739.18,40Z"/><path class="cls-5" d="M213.93,30.35c-9.16,1.24-12.22-5.23-12.42-21.1-2.36,14.17-6.54,21.17-15.28,22.09l12.53,1.46Z"/><path class="cls-4" d="M112.57,30.39c-7.45.11-10.33-5.87-8.84-16.88C101.32,25.42,97.15,29.13,90.07,29l10.12,2.56Z"/><path class="cls-6" d="M384.43,26.71A296.12,296.12,0,0,1,423.5,29.8c6.47,1,12.93,2.14,19.34,3.6,3.21.72,6.4,1.54,9.58,2.41s6.32,1.88,9.44,3,6.21,2.3,9.27,3.62c1.52.69,3,1.35,4.58,2.09s3,1.52,4.45,2.32c5.76,3.24,11.29,6.57,17,9.55,2.85,1.48,5.69,2.94,8.58,4.3s5.8,2.6,8.75,3.76a126.29,126.29,0,0,0,18.12,5.48,117.44,117.44,0,0,0,37.6,2c12.66-1.2,25.19-4,37.68-7.38s25-7.29,37.84-10.15c1.6-.38,3.22-.69,4.83-1s3.24-.6,4.88-.84c3.26-.54,6.55-.91,9.84-1.17a90.86,90.86,0,0,1,9.9-.11,66.33,66.33,0,0,1,9.76,1.28,81.25,81.25,0,0,0-9.75.1,91,91,0,0,0-9.6,1.26,156.3,156.3,0,0,0-18.74,4.75c-12.33,3.87-24.51,8.5-37.05,12.48A201.26,201.26,0,0,1,571,79.78a116.24,116.24,0,0,1-40.15-2.26c-3.28-.76-6.52-1.71-9.71-2.75s-6.32-2.29-9.41-3.59a147.44,147.44,0,0,1-17.79-9.11c-5.69-3.39-11.14-7.1-16.56-10.56-1.35-.89-2.7-1.72-4.05-2.53s-2.79-1.47-4.21-2.19c-2.88-1.38-5.81-2.68-8.8-3.84a223.17,223.17,0,0,0-37.27-10.61q-9.54-2-19.21-3.34C397.39,28.07,390.93,27.27,384.43,26.71Z"/><path class="cls-6" d="M946.16,92.93a423.94,423.94,0,0,1-54.28-1.09q-13.54-1.16-27-3c-9-1.28-17.91-2.82-26.81-4.55q-6.66-1.32-13.3-2.77t-13.21-3c-8.79-2.08-17.52-4.27-26.24-6.28A217.75,217.75,0,0,0,759,67.42a105.63,105.63,0,0,0-13.32-.64A108.73,108.73,0,0,0,732.29,68a76,76,0,0,1,13.21-3.39,95.26,95.26,0,0,1,13.71-1.08c4.6,0,9.17.32,13.73.71,2.27.22,4.55.48,6.8.8s4.51.64,6.76,1c9,1.44,17.83,3.26,26.66,5l13.22,2.7c4.4.91,8.8,1.81,13.2,2.65Q852.78,79,866,81.32t26.57,4.29C910.36,88.29,928.22,90.49,946.16,92.93Z"/><path class="cls-6" d="M344.32,38.2c-11.53.47-23,1.16-34.34,2.63a302.75,302.75,0,0,0-33.64,6.1Q259.77,51,243.49,56.42l-32.68,11q-8.24,2.7-16.6,5.15l-8.4,2.31c-2.83.69-5.64,1.45-8.48,2.08a248.43,248.43,0,0,1-34.49,5.53,247.07,247.07,0,0,1-34.83.67,282.89,282.89,0,0,1-34.43-4c11.54.3,23,.53,34.46.1l8.57-.37,8.54-.65c2.84-.24,5.67-.58,8.5-.85,1.42-.12,2.83-.3,4.24-.5l4.23-.57a319.24,319.24,0,0,0,33.42-6.7l8.24-2.2L192,65q8.19-2.48,16.35-5.17c10.9-3.54,21.8-7.27,32.9-10.6a321.66,321.66,0,0,1,33.82-8.36l4.29-.79,4.31-.67,4.31-.65,4.34-.49,4.33-.47,4.35-.33,4.34-.34,4.35-.17A237,237,0,0,1,344.32,38.2Z"/><path class="cls-4" d="M1090.62,35.23c9.15,1.23,13.73-10.93,16.87-24.59-1.56,14.73.89,26.21,9.63,27.13l-12.53.43Z"/><path class="cls-4" d="M1173.44,38.48c7.18.26,9.86-6.74,11.25-17.54-.09,11.51,3.45,16.4,10.28,16.44L1184.2,40Z"/><path class="cls-4" d="M1709.46,30.35c9.15,1.24,12.21-5.23,12.41-21.1,2.36,14.17,6.55,21.17,15.28,22.09l-12.53,1.46Z"/><path class="cls-4" d="M1810.82,30.39c7.44.11,10.32-5.87,8.84-16.88,2.4,11.91,6.57,15.62,13.65,15.52l-10.12,2.56Z"/><path class="cls-6" d="M1539,26.71c-6.5.56-13,1.36-19.41,2.29s-12.86,2-19.22,3.34A223.33,223.33,0,0,0,1463.07,43c-3,1.16-5.93,2.46-8.81,3.84-1.42.72-2.88,1.4-4.21,2.19s-2.7,1.64-4,2.53c-5.41,3.46-10.87,7.17-16.56,10.56a147.44,147.44,0,0,1-17.79,9.11q-4.62,1.95-9.4,3.59c-3.2,1-6.43,2-9.72,2.75a116.24,116.24,0,0,1-40.15,2.26,201.26,201.26,0,0,1-38.78-8.68c-12.54-4-24.71-8.61-37-12.48a156.3,156.3,0,0,0-18.74-4.75,90.66,90.66,0,0,0-9.6-1.26,81.25,81.25,0,0,0-9.75-.1,66.33,66.33,0,0,1,9.76-1.28,90.86,90.86,0,0,1,9.9.11c3.29.26,6.59.63,9.84,1.17,1.64.24,3.26.56,4.88.84s3.24.66,4.84,1c12.87,2.86,25.32,6.87,37.83,10.15s25,6.18,37.68,7.38a117.41,117.41,0,0,0,37.6-2,126.29,126.29,0,0,0,18.12-5.48q4.42-1.74,8.76-3.76c2.88-1.36,5.72-2.82,8.57-4.3,5.69-3,11.22-6.31,17-9.55,1.45-.8,2.94-1.57,4.45-2.32s3.06-1.4,4.58-2.09c3.06-1.32,6.14-2.54,9.27-3.62s6.28-2.06,9.45-3,6.36-1.69,9.57-2.41c6.41-1.46,12.87-2.63,19.35-3.6A295.85,295.85,0,0,1,1539,26.71Z"/><path class="cls-6" d="M977.22,92.93c17.94-2.44,35.8-4.64,53.56-7.32q13.32-2,26.57-4.29t26.45-4.92c4.41-.84,8.8-1.74,13.2-2.65l13.22-2.7c8.83-1.79,17.69-3.61,26.67-5,2.24-.36,4.49-.71,6.75-1s4.53-.58,6.8-.8c4.56-.39,9.14-.74,13.73-.71a95.15,95.15,0,0,1,13.71,1.08A75.75,75.75,0,0,1,1191.09,68a108.73,108.73,0,0,0-13.41-1.18,105.72,105.72,0,0,0-13.32.64,217.75,217.75,0,0,0-26.27,4.76c-8.72,2-17.45,4.2-26.23,6.28-4.39,1-8.81,2-13.22,3s-8.85,1.89-13.3,2.77c-8.89,1.73-17.83,3.27-26.81,4.55s-18,2.27-27,3A423.9,423.9,0,0,1,977.22,92.93Z"/><path class="cls-6" d="M1579.06,38.2a237,237,0,0,1,34.65-1.26l4.35.17,4.34.34,4.35.33,4.33.47,4.34.49,4.31.65,4.31.67,4.29.79a321.05,321.05,0,0,1,33.82,8.36c11.1,3.33,22,7.06,32.9,10.6q8.17,2.7,16.35,5.17l8.2,2.4,8.25,2.2a318.54,318.54,0,0,0,33.41,6.7l4.23.57c1.41.2,2.82.38,4.24.5,2.83.27,5.67.61,8.51.85l8.54.65,8.56.37c11.44.43,22.92.2,34.46-.1a282.89,282.89,0,0,1-34.43,4,246.93,246.93,0,0,1-34.82-.67,248.33,248.33,0,0,1-34.5-5.53c-2.84-.63-5.65-1.39-8.47-2.08l-8.41-2.31q-8.36-2.46-16.6-5.15l-32.68-11Q1663.63,51,1647,46.93a302.33,302.33,0,0,0-33.64-6.1C1602.05,39.36,1590.59,38.67,1579.06,38.2Z"/></g></g></svg>